<svg width="34" height="36" viewBox="0 0 34 36" fill="none" xmlns="http://www.w3.org/2000/svg">
<path d="M32.6697 5.82229C32.5516 5.18603 32.1236 4.65696 31.5244 4.40751L23.6995 1.14755C23.4645 1.04973 23.2159 1 22.9609 1C22.7059 1 22.4579 1.04973 22.2225 1.14755L14.3976 4.40751C13.7988 4.65696 13.3708 5.18603 13.2523 5.82229C13.2265 5.96087 12.6295 9.26324 13.368 13.0824C13.8139 15.389 14.6538 17.4189 15.864 19.1145C17.402 21.2698 19.5171 22.8611 22.1504 23.8434C22.3658 23.9237 22.5919 23.9645 22.8216 23.9645H23.1C23.3297 23.9645 23.5556 23.9237 23.7709 23.8434C26.4043 22.8611 28.5196 21.2698 30.0576 19.1145C31.2678 17.4189 32.1073 15.389 32.5536 13.0824C33.2917 9.26569 32.6955 5.96128 32.6697 5.82229Z" stroke="#FDFDFD" stroke-width="2"/>
<path d="M19.6494 12.7121C20.2314 13.2933 20.825 13.8831 21.3988 14.4534L21.6337 14.6869C21.7147 14.7672 21.789 14.8137 21.8381 14.8137C21.8859 14.8137 21.9584 14.7688 22.0369 14.6906L24.5431 12.1981C24.7114 12.0306 24.8798 11.8631 25.0486 11.696C25.4466 11.3006 25.8583 10.8918 26.2613 10.4886" stroke="#FDFDFD" stroke-width="2"/>
<path d="M17.318 30.0548C17.6647 29.9636 18.3608 29.7182 18.6352 29.4754C18.7358 29.3711 18.8267 29.2497 18.905 29.1139C19.3544 28.337 19.0852 27.3266 18.2917 26.8135C18.2865 26.8102 18.2813 26.8069 18.276 26.8043C16.7924 26.1075 15.4148 25.1502 14.3075 24.3799C13.9299 24.1175 13.5726 23.8694 13.2673 23.6713C12.7469 23.3347 12.1652 23.1713 11.4876 23.1713C10.848 23.1713 10.2204 23.3183 9.74475 23.4456L4.82119 24.769L4.58057 23.8406C4.51741 23.5978 4.36273 23.3931 4.14495 23.2651C3.99823 23.1792 3.83306 23.1339 3.6666 23.1339C3.58699 23.1339 3.50749 23.1444 3.4292 23.1641L1.70855 23.6083C1.46512 23.6713 1.25988 23.8255 1.13158 24.0433C1.00328 24.2605 0.967223 24.5144 1.03038 24.7572L3.34374 33.6713C3.4069 33.9141 3.56127 34.1188 3.77904 34.2468C3.92576 34.3327 4.09094 34.378 4.25739 34.378C4.337 34.378 4.41748 34.3675 4.49512 34.3478L6.21544 33.9036C6.45888 33.8406 6.66412 33.6864 6.79242 33.4686C6.92071 33.2514 6.95709 32.9975 6.89393 32.7547L6.52063 31.3172M17.318 30.0548C17.1154 29.9642 16.7324 29.7864 16.635 29.7359L16.6247 29.7274L16.5872 29.7083C15.8167 29.3225 15.1356 28.9177 14.4152 28.4886C14.1072 28.3049 13.7579 28.0969 13.4006 27.8915M17.318 30.0548C17.8648 30.2982 18.3885 30.4169 18.9188 30.4169C19.2379 30.4169 19.5656 30.3723 19.8919 30.2837L26.0481 28.6139C26.6883 28.44 27.2665 28.3521 27.7665 28.3521C29.1778 28.3521 29.5872 29.0463 29.7056 29.4603C29.9306 30.2464 29.4761 31.1879 28.7708 31.3978L17.5121 34.75C17.162 34.8543 16.8095 34.9068 16.4635 34.9068C15.8378 34.9068 15.224 34.7362 14.6384 34.399L8.13205 30.6525C8.11165 30.6407 8.08858 30.6348 8.06555 30.6348C8.05371 30.6348 8.04268 30.6361 8.0315 30.6394L6.45445 31.0606L4.88898 25.0275" stroke="#FDFDFD" stroke-width="2"/>
</svg>
