<svg width="36" height="44" viewBox="0 0 36 44" fill="none" xmlns="http://www.w3.org/2000/svg">
<path d="M13.81 15.6696C17.8656 15.6696 21.165 12.3793 21.165 8.33482C21.165 4.29038 17.8656 1 13.81 1C9.75449 1 6.45508 4.29038 6.45508 8.33482C6.45508 12.3793 9.75449 15.6696 13.81 15.6696Z" stroke="#FDFDFD" stroke-width="2"/>
<path d="M13.035 31.9381H1V26.1241C1 22.9181 3.61511 20.3101 6.82995 20.3101H16.1369" stroke="#FDFDFD" stroke-width="2"/>
<path d="M24.8514 28.5525C22.8023 28.5525 21.1357 30.2144 21.1357 32.2578C21.1357 34.3013 22.8023 35.9633 24.8514 35.9633C26.9004 35.9633 28.567 34.3013 28.567 32.2578C28.567 30.2144 26.9004 28.5525 24.8514 28.5525Z" stroke="#FDFDFD" stroke-width="2"/>
<path d="M34.1214 34.668L32.2079 33.296L32.241 33.0429C32.2763 32.774 32.2935 32.5104 32.2935 32.2596C32.2935 32.0103 32.2756 31.7466 32.241 31.4763L32.2079 31.2232L34.1206 29.8512C34.635 29.4817 34.784 28.79 34.467 28.2426L33.1455 25.9595C32.9271 25.581 32.5196 25.346 32.0828 25.346C31.9081 25.346 31.7373 25.3828 31.5762 25.4549L29.4126 26.4282L29.2107 26.2809C28.7807 25.967 28.3253 25.7027 27.8561 25.4954L27.6285 25.3948L27.3928 23.0464C27.3303 22.4171 26.8047 21.9425 26.1698 21.9425H23.5261C22.8913 21.9425 22.3656 22.4164 22.3031 23.0457L22.0681 25.3933L21.8405 25.4939C21.3676 25.7042 20.9114 25.9686 20.4859 26.2795L20.2841 26.4266L18.1205 25.4533C17.9579 25.3805 17.7871 25.3437 17.6124 25.3437C17.1771 25.3437 16.7703 25.5796 16.5512 25.9588L15.2304 28.2417C14.9134 28.7892 15.0624 29.4809 15.5768 29.8504L17.4903 31.2224L17.4572 31.4755C17.4218 31.7444 17.4042 32.008 17.4042 32.2588C17.4042 32.5074 17.4225 32.771 17.4572 33.0421L17.4895 33.2952L15.5768 34.6672C15.0624 35.0367 14.9134 35.7284 15.2304 36.2758L16.5519 38.5596C16.771 38.9396 17.1778 39.1755 17.6131 39.1755C17.7878 39.1755 17.9579 39.1386 18.1205 39.0643L20.2841 38.091L20.4859 38.2382C20.9122 38.5498 21.3676 38.8142 21.8405 39.0237L22.0681 39.1244L22.3031 41.4727C22.3656 42.102 22.8913 42.5766 23.5261 42.5766H26.1698C26.8047 42.5766 27.3303 42.1028 27.3928 41.4734L27.63 39.1244L27.8576 39.0237C28.3305 38.8135 28.786 38.5491 29.2122 38.2382L29.4141 38.091L31.5776 39.0643C31.7403 39.1371 31.9111 39.1747 32.0858 39.1747C32.5203 39.1747 32.9271 38.9388 33.147 38.5596L34.4663 36.2781C34.7833 35.7306 34.6342 35.039 34.1199 34.6695L34.1214 34.668Z" stroke="#FDFDFD" stroke-width="2"/>
</svg>
