<svg width="29" height="34" viewBox="0 0 29 34" fill="none" xmlns="http://www.w3.org/2000/svg">
<path d="M8.98466 32.7841C11.5141 32.7841 14.0398 32.7841 16.5692 32.7841C16.8163 32.7841 16.9398 32.6572 16.9398 32.4033C16.9398 31.291 16.9398 30.1787 16.9398 29.0663C16.9398 28.6101 17.0116 28.5347 17.4767 28.5422C18.4748 28.5535 19.4768 28.5686 20.475 28.5837C22.2217 28.6063 23.53 27.3884 23.598 25.654C23.6509 24.2551 23.6736 22.8562 23.7114 21.4573C23.7228 20.986 23.7984 20.9106 24.2748 20.9106C25.1104 20.9106 25.946 20.9106 26.7816 20.9106C27.2239 20.9106 27.3147 20.7899 27.1975 20.3714C26.5093 17.8715 25.8061 15.3716 25.1444 12.8641C24.9818 12.2495 24.9856 11.5934 24.8608 10.9675C23.995 6.5597 21.4996 3.40749 17.2838 1.85777C12.482 0.0780552 8.13016 1.09611 4.46265 4.64801C2.32263 6.72183 1.18835 9.32731 1.02198 12.3098C0.821595 15.8467 1.99369 18.8933 4.4324 21.4573C4.5912 21.6232 4.65926 21.7891 4.65926 22.0153C4.65547 25.6464 4.65925 29.2813 4.65547 32.9123" stroke="#FDFDFD" stroke-width="2"/>
<path d="M9.1875 11.547V14.2195C9.1875 15.2014 9.1875 15.2014 10.1164 15.8267L12.6708 17.2996C13.0563 17.5219 13.6833 17.5219 14.0642 17.2996L16.6186 15.8267C17.5475 15.2014 17.5475 15.2014 17.5475 14.2241V11.547C17.5475 10.5697 17.5475 10.5697 16.6186 9.94444L14.0642 8.47155C13.6833 8.24923 13.0563 8.24923 12.6708 8.47155L10.1164 9.94444C9.1875 10.5697 9.1875 10.5697 9.1875 11.547Z" stroke="#FDFDFD" stroke-width="2" stroke-linecap="round" stroke-linejoin="round"/>
</svg>
