<svg width="29" height="33" viewBox="0 0 29 33" fill="none" xmlns="http://www.w3.org/2000/svg">
<path d="M22.1565 0.15658V4.4235M14.5968 0V4.4235M7.03702 0V4.4235M25.6199 2.25687H5.19908H2.56061C1.70011 2.25687 1 2.956 1 3.81529V30.4416C1 31.3009 1.70011 32 2.56061 32H25.6218C26.4823 32 27.1818 31.3009 27.1818 30.4416V3.81529C27.1818 2.956 26.4823 2.25687 25.6218 2.25687H25.6199Z" stroke="#ED1C24" stroke-width="2"/>
<path d="M24.5877 12.2833H13.918" stroke="#ED1C24" stroke-width="2"/>
<path d="M3.90918 13.3185L5.10307 14.5128L5.38077 14.7702L9.24228 10.9091" stroke="#ED1C24" stroke-width="2"/>
<path d="M24.5877 21.0106H13.918" stroke="#ED1C24" stroke-width="2"/>
<path d="M3.90918 22.0458L5.10307 23.2399L5.38077 23.4973L9.24228 19.6364" stroke="#ED1C24" stroke-width="2"/>
</svg>
