<svg width="34" height="34" viewBox="0 0 34 34" fill="none" xmlns="http://www.w3.org/2000/svg">
<path d="M20.7373 33H12.9844C12.7113 33 12.4911 32.7787 12.4911 32.5068V28.9924C11.0976 28.4848 9.81408 27.7415 8.66717 26.7771L5.61806 28.538C5.50446 28.6021 5.36903 28.6202 5.24334 28.5876C5.11765 28.5537 5.00883 28.4715 4.94356 28.3579L1.06653 21.6433C1.00127 21.5297 0.98312 21.3955 1.01696 21.2686C1.0508 21.1417 1.1335 21.0341 1.2471 20.9688L4.28382 19.2153C4.15571 18.4865 4.09203 17.7433 4.09203 17C4.09203 16.2567 4.15571 15.5123 4.28382 14.7847L1.2471 13.0311C1.1335 12.9658 1.0508 12.8571 1.01696 12.7314C0.98312 12.6057 1.00006 12.4703 1.06653 12.3567L4.94356 5.64212C5.00883 5.52851 5.11765 5.44625 5.24334 5.41241C5.36903 5.37858 5.50446 5.39551 5.61806 5.46198L8.66717 7.22288C9.81408 6.25966 11.0976 5.51637 12.4911 5.00878V1.49304C12.4911 1.21991 12.7125 1 12.9844 1H20.7373C21.0105 1 21.2301 1.22111 21.2301 1.49304V5.00878C22.6235 5.51637 23.9071 6.25966 25.054 7.22288L28.1043 5.46198C28.2179 5.39672 28.3533 5.37858 28.479 5.41241C28.6047 5.44625 28.7135 5.52851 28.7788 5.64212L32.6558 12.3567C32.7924 12.5924 32.7115 12.8945 32.4758 13.0311L29.4385 14.7847C29.5654 15.5147 29.6309 16.258 29.6309 17C29.6309 17.742 29.5666 18.4865 29.4385 19.2153L32.4758 20.9688C32.7115 21.1054 32.7924 21.4064 32.6558 21.6433L28.7788 28.3579C28.7135 28.4715 28.6047 28.5537 28.479 28.5876C28.3533 28.6202 28.2179 28.6033 28.1043 28.538L25.054 26.7771C23.9059 27.7415 22.6223 28.4848 21.2301 28.9924V32.5068C21.2301 32.7799 21.0092 33 20.7373 33Z" stroke="#ED1C24" stroke-width="2"/>
<path d="M16.8596 12.3239C14.2818 12.3239 12.1836 14.4219 12.1836 16.9998C12.1836 19.5776 14.2806 21.6757 16.8596 21.6757C19.4387 21.6757 21.5351 19.5788 21.5351 16.9998C21.5351 14.4207 19.4375 12.3239 16.8596 12.3239Z" stroke="#ED1C24" stroke-width="2"/>
</svg>
