<svg width="50" height="49" viewBox="0 0 50 49" fill="none" xmlns="http://www.w3.org/2000/svg">
<path d="M24.9106 47.5728C24.3327 47.5728 23.7787 47.4078 23.3087 47.0946L18.6502 44.0439C18.3272 43.8206 17.9289 43.6985 17.5263 43.6985C17.5201 43.6985 17.5139 43.6985 17.5077 43.6985L11.8229 43.6161C10.6371 43.607 9.5955 42.9022 9.22205 41.862L7.37868 36.8428C7.25567 36.4785 7.00581 36.1596 6.67219 35.9378L2.12555 32.7585C1.17246 32.1015 0.774267 30.9615 1.12825 29.9155L2.80353 24.846C2.93362 24.4842 2.93362 24.0893 2.80353 23.7274L1.13084 18.6654C0.774205 17.612 1.1713 16.4711 2.11821 15.8191L6.67219 12.6349C7.00581 12.4132 7.25567 12.0942 7.37868 11.7298L9.21946 6.71896C9.59556 5.67128 10.6368 4.96644 11.8138 4.95737L17.5077 4.87496C17.5139 4.87496 17.5201 4.87496 17.5263 4.87496C17.9289 4.87496 18.3272 4.7522 18.6502 4.52882L23.3014 1.48299C23.7793 1.16563 24.3327 1 24.9106 1C25.4884 1 26.0425 1.16565 26.5124 1.47806L31.1705 4.52791C31.4935 4.7513 31.8918 4.87415 32.2944 4.87415C32.3006 4.87415 32.3068 4.87415 32.313 4.87415L37.9982 4.95656C39.1841 4.96563 40.2256 5.67045 40.5991 6.71071L42.4425 11.729C42.5655 12.0934 42.8149 12.4132 43.1485 12.6341L47.6956 15.8134C48.6487 16.4704 49.0469 17.6112 48.6929 18.6564L47.0176 23.7258C46.8875 24.0877 46.8875 24.4825 47.0176 24.8452L48.6899 29.9064C49.0465 30.9599 48.6494 32.1007 47.7025 32.7527L43.1485 35.9369C42.8149 36.1587 42.5655 36.4777 42.4425 36.842L40.6017 41.8529C40.2256 42.9006 39.1839 43.6054 38.0069 43.6145L32.313 43.6969C32.3068 43.6969 32.3006 43.6969 32.2944 43.6969C31.8918 43.6969 31.4935 43.8198 31.1705 44.0431L26.5193 47.0889C26.0414 47.4062 25.4884 47.5719 24.9106 47.5719V47.5728ZM24.9106 38.076C16.7477 38.076 10.107 31.8905 10.107 24.2872C10.107 16.6839 16.7477 10.4983 24.9106 10.4983C33.0734 10.4983 39.7141 16.6839 39.7141 24.2872C39.7141 31.8905 33.0734 38.076 24.9106 38.076Z" stroke="#ED1C24" stroke-width="2"/>
<path d="M16.9152 23.3986L22.0499 28.9049C22.1225 28.9824 22.2257 29.0302 22.3372 29.036C22.3443 29.036 22.3593 29.0368 22.3593 29.0368C22.4619 29.0368 22.5602 29.0014 22.6354 28.9371L32.869 20.2012" stroke="#ED1C24" stroke-width="2"/>
</svg>
