<svg width="48" height="49" viewBox="0 0 48 49" fill="none" xmlns="http://www.w3.org/2000/svg">
<path d="M23.9991 47.5728C22.0838 47.5728 20.1698 47.3498 18.308 46.9027C17.4907 46.7064 16.8646 46.0585 16.7134 45.2498C16.7134 45.2498 16.0371 41.6156 15.8587 40.6604C15.055 40.2788 14.2764 39.8394 13.5398 39.3524L9.04082 40.9243C8.24741 41.2017 7.35832 40.9976 6.77634 40.4041C4.12219 37.7028 2.15479 34.3759 1.08517 30.7827C0.849881 29.9939 1.1123 29.1408 1.75453 28.6084L5.39878 25.5908C5.33513 24.7222 5.33513 23.8447 5.39878 22.9783L1.75453 19.962C1.1123 19.4295 0.849881 18.5764 1.08517 17.7877C2.15479 14.1934 4.12219 10.8664 6.77634 8.16625C7.35832 7.57275 8.24628 7.3686 9.04082 7.64705L13.5398 9.219C14.2775 8.73088 15.055 8.29149 15.8587 7.91099L16.7134 3.3227C16.8646 2.51398 17.4907 1.86502 18.308 1.66977C22.0306 0.776742 25.9682 0.776742 29.6909 1.66977C30.5081 1.86613 31.1342 2.51398 31.2854 3.3227C31.2854 3.3227 31.9628 6.95694 32.1401 7.91099C32.9426 8.29149 33.7213 8.73088 34.459 9.219L38.958 7.64705C39.7514 7.36971 40.6405 7.57272 41.2236 8.16733C43.8766 10.8675 45.8451 14.1944 46.9148 17.7887C47.1489 18.5775 46.8865 19.4317 46.2454 19.963L42.6011 22.9794C42.6648 23.848 42.6648 24.7256 42.6011 25.5931L46.2454 28.6094C46.8865 29.1419 47.15 29.995 46.9159 30.7837C45.8462 34.378 43.8788 37.705 41.2247 40.4051C40.6427 40.9987 39.7525 41.2028 38.9602 40.9254L34.4612 39.3535C33.7235 39.8416 32.9449 40.281 32.1424 40.6615L31.2876 45.2498C31.1365 46.0585 30.5103 46.7075 29.6931 46.9027C27.8323 47.3487 25.9155 47.5728 24.0014 47.5728H23.9991ZM23.9991 32.8971C19.1341 32.8971 15.1765 29.0344 15.1765 24.2863C15.1765 19.5383 19.1341 15.6754 23.9991 15.6754C28.8641 15.6754 32.8223 19.5383 32.8223 24.2863C32.8223 29.0344 28.8641 32.8971 23.9991 32.8971Z" stroke="#ED1C24" stroke-width="2"/>
</svg>
