<svg width="41" height="48" viewBox="0 0 41 48" fill="none" xmlns="http://www.w3.org/2000/svg">
<path d="M1.052 0V32.9735C1.052 36.3069 3.02221 39.3352 6.19243 40.877L15.8073 45.5581C17.1967 46.2339 18.7201 46.5728 20.2435 46.5728C21.7669 46.5728 23.3031 46.2319 24.6988 45.5482L34.2307 40.879C37.3882 39.3332 39.3499 36.3089 39.3499 32.9874V0M20.2435 20.7063L2.3286 10.9002L20.2435 1.65203M20.2435 20.7063L2.3286 28.0231L16.7988 35.9007C17.5329 36.2554 19.435 37.4288 20.2435 37.5358M20.2435 20.7063L38.0733 10.4245L20.2435 1.65203M20.2435 20.7063L38.0733 27.5474L20.2435 37.5358M20.2435 37.5358V1.65203" stroke="#ED1C24" stroke-width="2"/>
</svg>
