<svg width="29" height="34" viewBox="0 0 29 34" fill="none" xmlns="http://www.w3.org/2000/svg">
<path d="M16.537 26.806L19.3524 32.8483C19.3956 32.9405 19.4889 33 19.5905 33L19.5921 32.999C19.63 32.999 19.6669 32.9905 19.7022 32.9742C19.7338 32.9589 19.7623 32.9384 19.786 32.912L22.1106 30.3331L25.5838 30.2077C25.7282 30.2025 25.8419 30.0802 25.8367 29.9354C25.8351 29.9001 25.8273 29.8664 25.812 29.8342L22.8084 23.3984M16.537 26.806L16.1968 27.0398C15.6458 27.4186 15.052 27.7884 14.3935 27.7884C13.7351 27.7884 13.1421 27.4186 12.59 27.0393L12.2497 26.8054M16.537 26.806L17.2955 26.3566C17.3835 26.3156 17.4762 26.2818 17.57 26.255L17.5872 26.2503L17.6052 26.2471C17.8649 26.2018 18.1309 26.1786 18.3948 26.1786V26.1791C18.6102 26.1791 18.8273 26.1944 19.0406 26.2244C19.3045 26.246 19.5768 26.2676 19.8465 26.2676C20.369 26.2676 20.7615 26.1828 21.0818 26C21.5711 25.6687 21.9457 25.2041 22.1664 24.6558L22.8084 23.3984M12.2497 26.8054L9.43467 32.8473C9.41992 32.8789 9.39901 32.9073 9.3732 32.931C9.32474 32.9747 9.26206 32.999 9.19727 32.999C9.12195 32.999 9.05236 32.9684 9.00231 32.9126L6.67824 30.3341L3.20808 30.2088C3.17278 30.2077 3.13861 30.1993 3.10648 30.184C3.04327 30.1545 2.99464 30.1019 2.97094 30.036C2.94723 29.9702 2.94991 29.899 2.97994 29.8353L5.982 23.4M12.2497 26.8054L11.4933 26.3577C11.4053 26.3171 11.3132 26.2829 11.2189 26.2566L11.2022 26.2518L11.1847 26.2487C10.9234 26.2034 10.6569 26.1802 10.392 26.1802C10.1771 26.1802 9.96049 26.1955 9.74768 26.2255C9.47957 26.2471 9.20893 26.2682 8.94187 26.2682C8.41881 26.2682 8.02525 26.1828 7.70499 26C7.21775 25.6687 6.84314 25.2047 6.62243 24.6579L5.982 23.4M5.982 23.4L5.85082 23.2314C5.81026 23.1793 5.76651 23.1287 5.72068 23.0808L5.70653 23.0655L5.69059 23.0523C5.32502 22.75 4.91696 22.5077 4.47659 22.3318C3.85134 22.0373 3.14531 21.7028 2.7945 21.0928C2.44842 20.4955 2.50848 19.7238 2.56379 19.0406C2.63174 18.5618 2.62388 18.0772 2.54012 17.6005L2.53446 17.5684L2.52289 17.5378C2.36118 17.1059 2.13401 16.7029 1.84851 16.3405C1.44923 15.7664 1 15.1163 1 14.3936C1 13.6709 1.42977 13.0499 1.84748 12.4489C2.13456 12.0839 2.36168 11.6788 2.52392 11.2437L2.53498 11.2137L2.54012 11.1821C2.62282 10.7075 2.63018 10.225 2.56276 9.74772C2.50745 9.06452 2.44738 8.29286 2.79398 7.69448C3.14374 7.08608 3.82029 6.76528 4.47557 6.45608C4.91645 6.28015 5.32502 6.03732 5.69059 5.73444L5.71605 5.71335L5.73714 5.68808C6.03897 5.32304 6.2806 4.91534 6.45653 4.4755C6.75099 3.85025 7.0855 3.14439 7.69547 2.79305C8.01784 2.60605 8.41281 2.51916 8.93956 2.51916C9.20925 2.51916 9.48274 2.54074 9.74717 2.56234C9.9605 2.59236 10.1776 2.60819 10.393 2.60819C10.6569 2.60819 10.9229 2.58501 11.1831 2.53971L11.2153 2.53389L11.2456 2.52231C11.6797 2.36007 12.0848 2.13303 12.4488 1.84648C13.0504 1.4293 13.6724 1 14.394 1C15.1157 1 15.767 1.44934 16.3385 1.84809C16.7035 2.13517 17.1089 2.36272 17.544 2.52443L17.5741 2.53549L17.6057 2.54128C17.8654 2.58658 18.1304 2.60921 18.3938 2.60921C18.6092 2.60921 18.8268 2.59395 19.0401 2.5634C19.304 2.5418 19.5768 2.52022 19.8465 2.52022C20.3743 2.52022 20.77 2.60766 21.0923 2.79466C21.7013 3.14442 22.0221 3.82074 22.3308 4.47602C22.5067 4.9169 22.7493 5.32567 23.0522 5.69123L23.0733 5.71653L23.0988 5.73759C23.4638 6.03942 23.8714 6.28121 24.3112 6.45714C24.9665 6.76582 25.6422 7.08659 25.9931 7.69657C26.3391 8.29337 26.2812 9.03293 26.2238 9.74878C26.1563 10.2265 26.1637 10.7096 26.2464 11.1842L26.2523 11.2163L26.2639 11.2468C26.4261 11.6814 26.6543 12.086 26.9414 12.4505C27.3606 13.0552 27.7878 13.6752 27.7878 14.3952C27.7878 15.1153 27.3575 15.7406 26.9398 16.3421C26.6533 16.705 26.4261 17.1085 26.2639 17.5415L26.2523 17.572L26.2464 17.6042C26.1642 18.0793 26.1563 18.5624 26.2238 19.0401C26.2812 19.757 26.3386 20.495 25.9931 21.0918C25.6422 21.7018 24.9365 22.0368 24.3112 22.3312C23.8703 22.5072 23.4615 22.75 23.0964 23.0529L23.0813 23.0655L23.0676 23.0803C23.0218 23.1277 22.9786 23.1783 22.9385 23.2299L22.8084 23.3984" stroke="#ED1C24" stroke-width="2"/>
<path d="M14.3927 22.6626C12.1846 22.6626 10.1083 21.8024 8.54704 20.2412C6.98576 18.6793 6.12549 16.6034 6.12549 14.3948C6.12549 12.1866 6.98575 10.1102 8.54756 8.5489C10.1088 6.98761 12.1851 6.12744 14.3932 6.12744C18.9465 6.13271 22.6555 9.84155 22.6607 14.3948C22.6607 16.6034 21.8005 18.6793 20.2392 20.2412C18.6779 21.8024 16.6009 22.6626 14.3927 22.6626Z" stroke="#ED1C24" stroke-width="2"/>
<path d="M10.5923 13.688L13.608 16.7036L17.3557 12.9558L17.9588 12.3542" stroke="#ED1C24" stroke-width="2"/>
</svg>
