<svg width="31" height="34" viewBox="0 0 31 34" fill="none" xmlns="http://www.w3.org/2000/svg">
<path d="M4.88325 20.3518L4.23224 20.7402C4.02352 20.8644 3.82333 20.988 3.62772 21.1091C3.19033 21.3796 2.77673 21.635 2.33934 21.8561C1.63335 22.2129 1.20644 22.7116 1 23.4219V24.0189C1.19902 24.6937 1.61051 25.1709 2.3644 25.6056C5.10509 27.186 7.88241 28.8114 10.5683 30.3829C11.8338 31.123 13.0993 31.8638 14.3653 32.602C14.5483 32.7085 14.7398 32.8003 14.9428 32.8973C15.0135 32.9309 15.0843 32.9651 15.1544 32.9993L15.1561 33H15.6345C16.0479 32.7655 16.462 32.5311 16.8761 32.2972C17.8335 31.7561 18.824 31.1959 19.7911 30.6332C20.8165 30.0369 21.8391 29.4355 22.8622 28.8342C24.6454 27.7854 26.4901 26.7006 28.3178 25.6607C29.147 25.1887 29.581 24.7083 29.7994 24.0151V23.4283C29.5668 22.6945 29.1224 22.1869 28.405 21.8333C27.9835 21.6261 27.5856 21.3771 27.1636 21.1141C26.972 20.9943 26.7734 20.8701 26.5647 20.7453L25.9159 20.3569M4.88325 20.3518L4.23029 19.9665C4.01644 19.8404 3.81306 19.7162 3.61575 19.5958C3.18007 19.3297 2.76825 19.0788 2.33656 18.862C1.63513 18.5104 1.20929 18.0123 1 17.2981V16.6993C1.20301 15.982 1.64666 15.4737 2.39085 15.1043C2.81855 14.892 3.21932 14.6423 3.6436 14.3787C3.83235 14.2615 4.02509 14.1418 4.22639 14.0214L4.87184 13.6361M4.88325 20.3518C5.99812 21.0083 8.37846 22.3846 9.4785 23.024C11.0644 23.946 12.7046 24.8997 14.3088 25.8571C14.7011 26.091 15.0608 26.2051 15.4081 26.2051C15.7491 26.2051 16.0982 26.0961 16.4745 25.8711C18.4716 24.6792 20.5142 23.4955 22.4896 22.351C23.2532 21.9081 24.0168 21.4658 24.7798 21.0216C24.8597 20.9747 24.9402 20.9303 25.0252 20.8834L25.9159 20.3569M4.87184 13.6361L4.22639 13.2495C4.02167 13.1266 3.82681 13.0049 3.63691 12.8864C3.21606 12.6235 2.81787 12.3751 2.39531 12.1672C1.67392 11.813 1.22925 11.3054 1 10.5723V9.98679C1.22411 9.29165 1.65224 8.80562 2.41981 8.36965C4.22983 7.34183 6.05645 6.269 7.82256 5.23167C8.82509 4.64235 9.8275 4.05367 10.8329 3.46942C11.8428 2.88263 12.8761 2.29709 13.8758 1.73122C14.3057 1.48789 14.7364 1.24397 15.1658 1H15.6425C15.7241 1.04119 15.8063 1.08174 15.8884 1.1223C16.1194 1.23636 16.337 1.34405 16.5486 1.46698C17.7661 2.17733 18.9827 2.89021 20.1996 3.60246C22.8953 5.18095 25.6826 6.81396 28.4359 8.39688C29.1898 8.83031 29.601 9.30685 29.7994 9.98045V10.5799C29.601 11.2877 29.1693 11.7883 28.4445 12.1521C28.0083 12.3707 27.5976 12.6241 27.1625 12.8928C26.9692 13.0119 26.7714 13.1342 26.5661 13.2559L25.9148 13.643M4.87184 13.6361L13.2429 18.5015C13.3558 18.5668 13.4699 18.6307 13.584 18.6947C13.8417 18.8386 14.1081 18.9881 14.3647 19.1611C14.7092 19.393 15.041 19.5058 15.3774 19.5058C15.7139 19.5058 16.0651 19.3943 16.4506 19.1643C18.394 18.0059 20.381 16.8539 22.3022 15.7393C23.0424 15.3103 23.7832 14.8806 24.5228 14.4497C24.6528 14.3743 24.7832 14.3002 24.9252 14.2191L25.3267 13.9904L25.9148 13.643M25.9148 13.643L26.5666 14.0289C26.7771 14.1538 26.9805 14.278 27.1795 14.3997C27.6277 14.6734 28.0509 14.9326 28.4969 15.162C29.1886 15.5175 29.6044 16.0074 29.8 16.6993V17.3045C29.6141 18.0059 29.188 18.5028 28.4621 18.8646C28.0235 19.0832 27.6094 19.3373 27.1709 19.6059C26.9753 19.7257 26.7754 19.8486 26.5666 19.9722L25.9159 20.3569" stroke="#ED1C24" stroke-width="2"/>
</svg>
