<svg width="34" height="34" viewBox="0 0 34 34" fill="none" xmlns="http://www.w3.org/2000/svg">
<path d="M5.13412 22.0379L10.0221 19.4907C10.3935 19.2969 10.7562 19.207 11.1645 19.207C11.2049 19.207 11.2463 19.2081 11.2884 19.2098L18.2502 19.5108C18.9584 19.5414 19.6133 19.8476 20.0954 20.373C20.5781 20.8989 20.8266 21.5782 20.796 22.2858C20.7914 22.3982 20.7787 22.5118 20.7597 22.6237L20.667 23.1583L29.11 18.7577C29.4929 18.5582 29.9042 18.4573 30.3315 18.4573C30.6037 18.4573 30.8752 18.4994 31.1394 18.5824C31.8193 18.7964 32.3746 19.2605 32.7022 19.8891C33.0297 20.5183 33.0921 21.2386 32.877 21.9179C32.6631 22.5984 32.1988 23.1531 31.5702 23.4813L18.5904 30.2457C18.1734 30.4625 17.7219 30.5681 17.2103 30.5681C16.7611 30.5681 16.3211 30.4874 15.9128 30.3997L10.7607 29.2942C10.5623 29.2516 10.4241 29.2337 10.2978 29.2337C10.1317 29.2337 9.98635 29.2671 9.85372 29.3363L9.13287 29.7124M3.80026 20.6677C3.7201 20.6677 3.64284 20.6867 3.57133 20.7241L1.26799 21.9248C1.02348 22.0528 0.929357 22.355 1.0568 22.5983L6.33816 32.7329C6.39929 32.8511 6.50355 32.9383 6.63157 32.9775C6.68001 32.9925 6.73092 33 6.78109 33C6.8601 33 6.93966 32.9809 7.01002 32.944L9.31392 31.7434C9.43157 31.6823 9.51797 31.5784 9.55834 31.4516C9.5987 31.3253 9.58791 31.1904 9.52736 31.0727L4.24488 20.9357C4.18375 20.8175 4.07921 20.7311 3.95119 20.6913C3.90275 20.6763 3.85215 20.6682 3.80082 20.6682L3.80026 20.6677ZM14.974 16.6274C14.2099 16.6274 13.5855 16.0167 13.5641 15.2572V15.2168V14.9124C13.5641 11.5792 16.2756 8.86699 19.6094 8.86699C22.9432 8.86699 25.6547 11.5786 25.6547 14.9124V15.2168C25.6547 15.9948 25.0219 16.6274 24.244 16.6274H14.974ZM19.6089 7.04825C17.9411 7.04825 16.5847 5.69181 16.5847 4.02405C16.5847 2.35629 17.9411 1 19.6089 1C21.2766 1 22.6328 2.35629 22.6328 4.02405C22.6328 5.69181 21.2766 7.04825 19.6089 7.04825Z" stroke="#ED1C24" stroke-width="2" stroke-miterlimit="10"/>
</svg>
