<svg width="194" height="55" viewBox="0 0 194 55" fill="none" xmlns="http://www.w3.org/2000/svg">
<g clip-path="url(#clip0_353_455)">
<path d="M54.7018 15.8126L54.7174 27.4477C54.7174 42.554 42.4768 54.7997 27.3621 54.7997C12.2544 54.7997 0 42.554 0 27.4477C0 12.3434 12.2544 0 27.3621 0H54.7018V15.8126ZM38.7728 15.8864H27.3621C20.9792 15.8866 15.8005 21.0601 15.8005 27.4477C15.8005 33.8322 20.9794 39.0093 27.3621 39.0093C33.7466 39.0093 38.7728 33.8322 38.7728 27.4477V15.8864Z" fill="#A2A2A2"/>
<path d="M90.7698 23.848H86.4699C84.0645 23.848 82.1121 25.7969 82.1121 28.2046C82.1121 30.6102 84.0645 32.5624 86.4699 32.5624C88.8754 32.5624 90.7698 30.6102 90.7698 28.2046V23.848ZM96.7781 28.2046C96.7781 33.8974 92.166 38.513 86.4699 38.513C80.7763 38.513 76.1585 33.8974 76.1585 28.2046C76.1585 22.5119 80.7763 17.8609 86.4699 17.8609H90.7698V12.8793C90.7698 12.8793 90.7236 9.73047 93.7499 9.73047C96.7729 9.73047 96.7729 12.8793 96.7729 12.8793V17.8609H111.502C111.502 17.8609 115.079 17.4766 115.079 21.1396C115.079 21.1396 115.079 22.4616 113.755 23.8201L106.224 32.5486H111.967C111.967 32.5486 115.079 32.4176 115.079 35.4007C115.079 38.3808 111.967 38.3808 111.967 38.3808H99.7959C99.7959 38.3808 96.4323 38.3808 96.7729 34.719C96.7729 34.719 96.8148 33.8673 97.793 32.7183L105.369 23.8201H96.7729L96.7781 28.2046Z" fill="#2D2926"/>
<path d="M126.128 18.1719C128.984 18.1729 133.67 18.9224 133.666 22.0024C133.666 23.552 132.521 24.6967 131.052 24.6934C129.419 24.6934 128.97 23.7303 126.494 23.7259C123.274 23.7259 121.763 25.9392 121.759 28.6014C121.756 31.271 123.3 33.5058 126.112 33.508C128.842 33.5122 130.106 32.5094 131.044 32.5094C132.511 32.5168 133.647 33.8506 133.647 35.0727C133.644 37.9635 128.629 39.0665 126.098 39.0623C119.664 39.0524 115.394 34.4186 115.398 28.6014C115.41 22.783 119.692 18.1665 126.128 18.1719Z" fill="#2D2926"/>
<path d="M140.62 28.634C140.62 31.308 142.164 33.5268 144.967 33.5342C147.784 33.5364 149.342 31.3144 149.342 28.6458C149.342 25.9826 147.799 23.7533 144.987 23.7501C142.181 23.7469 140.62 25.9698 140.62 28.634ZM155.683 35.7282C155.683 37.397 154.378 38.7298 152.503 38.7266C150.963 38.7266 149.98 37.761 149.533 36.8719C148.105 38.4558 146.472 39.0884 144.072 39.082C140.226 39.0813 136.995 36.847 135.378 33.5342C134.665 32.0736 134.266 30.4034 134.266 28.6224C134.273 22.8136 138.562 18.1926 144.098 18.1938C146.501 18.2003 148.129 18.8307 149.551 20.4296C150.004 19.5373 150.986 18.5729 152.526 18.5816C154.404 18.5816 155.705 19.9132 155.705 21.5841L155.683 35.7282Z" fill="#2D2926"/>
<path d="M158.517 21.584C158.517 19.915 159.825 18.5847 161.696 18.5899C163.407 18.5899 164.463 19.5929 164.872 20.4436C165.938 19.2945 167.485 18.2238 169.275 18.228C170.907 18.2367 172.536 19.4168 172.53 21.2328C172.53 23.2303 170.854 23.7189 168.535 24.3395C165.765 25.0752 164.863 25.7421 164.859 28.7059L164.854 35.742C164.849 37.4087 163.548 38.7381 161.672 38.7361C159.801 38.7361 158.494 37.4013 158.499 35.7314L158.517 21.584Z" fill="#2D2926"/>
<path d="M178.351 28.6841C178.351 31.354 179.895 33.5779 182.7 33.5821C185.511 33.5833 187.064 31.3624 187.064 28.6918C187.067 26.0296 185.529 23.8076 182.716 23.8002C179.903 23.798 178.351 26.022 178.351 28.6841ZM193.411 35.7772C193.411 37.4385 192.11 38.7745 190.232 38.7745C188.687 38.7745 187.706 37.8048 187.257 36.9189C185.834 38.5092 184.203 39.1386 181.793 39.1354C176.258 39.1245 171.983 34.4907 171.993 28.6713C171.999 22.8615 176.283 18.2396 181.822 18.2438C184.555 18.2482 185.938 19.0268 187.08 19.8859L187.084 13.0301C187.09 11.3604 188.396 10.0308 190.271 10.0308C192.142 10.034 193.445 11.3668 193.441 13.0355L193.411 35.7772Z" fill="#2D2926"/>
</g>
<defs>
<clipPath id="clip0_353_455">
<rect width="193.61" height="55" fill="white"/>
</clipPath>
</defs>
</svg>
