<svg width="35" height="34" viewBox="0 0 35 34" fill="none" xmlns="http://www.w3.org/2000/svg">
<path d="M25 8V6C25 5.73478 24.8946 5.48043 24.7071 5.29289C24.5196 5.10536 24.2652 5 24 5H19M19 5V4C19 3.20435 18.6839 2.44129 18.1213 1.87868C17.5587 1.31607 16.7956 1 16 1H10C9.20435 1 8.44129 1.31607 7.87868 1.87868C7.31607 2.44129 7 3.20435 7 4V5M19 5H7M7 5H2C1.73478 5 1.48043 5.10536 1.29289 5.29289C1.10536 5.48043 1 5.73478 1 6V32C1 32.2652 1.10536 32.5196 1.29289 32.7071C1.48043 32.8946 1.73478 33 2 33H24C24.2652 33 24.5196 32.8946 24.7071 32.7071C24.8946 32.5196 25 32.2652 25 32V28" stroke="#FDFDFD" stroke-width="2" stroke-linecap="round"/>
<path d="M32.7832 13.3401L29.6615 10.2402C29.589 10.1681 29.5029 10.1109 29.4083 10.072C29.3137 10.0332 29.2123 10.0133 29.11 10.0137C29.0078 10.0141 28.9065 10.0346 28.8122 10.0742C28.7178 10.1137 28.6322 10.1715 28.5602 10.2441L19.2608 19.6094C19.1889 19.682 19.132 19.7681 19.0934 19.8627C19.0547 19.9573 19.0351 20.0586 19.0357 20.1608L19.0466 23.2716C19.0474 23.4779 19.13 23.6754 19.2764 23.8207C19.4227 23.966 19.6208 24.0473 19.8271 24.0465L22.9379 24.0356C23.0401 24.0354 23.1412 24.0151 23.2356 23.9758C23.3299 23.9365 23.4156 23.879 23.4877 23.8065L32.7871 14.4413C32.8593 14.3688 32.9164 14.2828 32.9553 14.1881C32.9942 14.0935 33.014 13.9922 33.0136 13.8899C33.0133 13.7876 32.9927 13.6863 32.9532 13.592C32.9137 13.4977 32.8559 13.412 32.7832 13.3401Z" stroke="#FDFDFD" stroke-width="2" stroke-linecap="round"/>
<path d="M4 21.6169H11.5" stroke="#FDFDFD" stroke-width="2" stroke-linecap="round"/>
<path d="M4 17H14" stroke="#FDFDFD" stroke-width="2" stroke-linecap="round"/>
<path d="M4 13H18" stroke="#FDFDFD" stroke-width="2" stroke-linecap="round"/>
</svg>
