<svg width="31" height="34" viewBox="0 0 31 34" fill="none" xmlns="http://www.w3.org/2000/svg">
<path opacity="0.93" d="M15.1138 33C14.5572 33 14.0136 32.8991 13.4975 32.7005C6.02109 29.8252 0.99877 22.5123 1 14.5039V6.57413C1 6.44559 1.10002 6.34164 1.22734 6.33672C5.7811 6.15958 10.4057 4.37966 14.973 1.04552C15.024 1.008 15.0775 1 15.1132 1C15.1489 1 15.2024 1.008 15.2553 1.04614C19.8201 4.37904 24.4447 6.15958 28.9991 6.33672C29.1276 6.34164 29.2273 6.4462 29.2273 6.57413V15.2757C29.2286 22.9404 24.7853 29.6013 17.9079 32.2466L16.7307 32.7005C16.2116 32.8991 15.6674 33 15.1138 33Z" stroke="#FDFDFD" stroke-width="2"/>
<path opacity="0.93" d="M9.36719 16.691L13.4884 20.8143L20.8617 13.4412" stroke="#FDFDFD" stroke-width="2" stroke-linecap="round"/>
</svg>
