<svg width="47" height="49" viewBox="0 0 47 49" fill="none" xmlns="http://www.w3.org/2000/svg">
<path d="M46.6556 11.2761V49.0001H1.19336V6.10352e-05H34.1301L39.9641 5.25217L46.6556 11.2761Z" fill="#B12A27"/>
<path d="M21.8036 3.28204H0V12.0646H21.8036V3.28204Z" fill="#F2F2F2"/>
<path d="M7.82301 6.16096C7.7268 5.95175 7.59859 5.76417 7.42233 5.6055C7.24607 5.44682 7.02963 5.31695 6.78118 5.23034C6.52477 5.13655 6.23625 5.09329 5.91573 5.09329H3.51953V10.6628H4.72964V8.56331H5.91573C6.23625 8.56331 6.52477 8.52005 6.78118 8.42626C7.02963 8.33965 7.24596 8.20988 7.42233 8.0511C7.5987 7.89243 7.7269 7.71203 7.82301 7.49564C7.91114 7.28643 7.95929 7.06277 7.95929 6.83194C7.95919 6.59383 7.91114 6.37017 7.82301 6.16096ZM6.51669 7.38013C6.35637 7.51717 6.13206 7.58934 5.85959 7.58934H4.72964V6.0599H5.85959C6.13206 6.0599 6.35648 6.13206 6.51669 6.27628C6.66892 6.41333 6.74908 6.60091 6.74908 6.83175C6.74918 7.0555 6.66903 7.24308 6.51669 7.38013Z" fill="#B12A27"/>
<path d="M13.6086 7.25035C13.6007 7.0556 13.5926 6.88247 13.5686 6.7237C13.5445 6.56493 13.5045 6.4207 13.4483 6.28365C13.3922 6.15378 13.3201 6.02391 13.2239 5.90849C13.0076 5.62713 12.7431 5.41792 12.4466 5.28805C12.142 5.15818 11.7814 5.09329 11.3567 5.09329H9.12891V10.6628H11.3567C11.7814 10.6628 12.142 10.5979 12.4466 10.468C12.7431 10.3381 13.0076 10.1289 13.2239 9.84756C13.3201 9.73214 13.3922 9.60227 13.4483 9.4724C13.5045 9.33535 13.5445 9.19103 13.5686 9.03235C13.5926 8.87368 13.6006 8.70045 13.6086 8.5057C13.6166 8.31812 13.6166 8.10891 13.6166 7.87807C13.6166 7.64724 13.6166 7.43793 13.6086 7.25035ZM12.3985 8.44081C12.3985 8.60676 12.3825 8.73663 12.3664 8.85205C12.3504 8.96029 12.3263 9.06125 12.2943 9.13342C12.2624 9.21275 12.2142 9.28491 12.1582 9.3498C11.9578 9.58064 11.6533 9.68888 11.2526 9.68888H10.331V6.05999H11.2526C11.6533 6.05999 11.9579 6.17541 12.1582 6.40625C12.2143 6.47114 12.2624 6.53612 12.2943 6.61546C12.3263 6.69479 12.3505 6.78858 12.3664 6.904C12.3825 7.01224 12.3985 7.14929 12.3985 7.30797C12.4065 7.46674 12.4065 7.6615 12.4065 7.87788C12.4066 8.09446 12.4066 8.28204 12.3985 8.44081Z" fill="#B12A27"/>
<path d="M18.7783 6.05999V5.09329H14.6992V10.6628H15.9093V8.40473H18.3536V7.43075H15.9093V6.05999H18.7783Z" fill="#B12A27"/>
<path d="M7.82301 6.16096C7.7268 5.95175 7.59859 5.76417 7.42233 5.6055C7.24607 5.44682 7.02963 5.31695 6.78118 5.23034C6.52477 5.13655 6.23625 5.09329 5.91573 5.09329H3.51953V10.6628H4.72964V8.56331H5.91573C6.23625 8.56331 6.52477 8.52005 6.78118 8.42626C7.02963 8.33965 7.24596 8.20988 7.42233 8.0511C7.5987 7.89243 7.7269 7.71203 7.82301 7.49564C7.91114 7.28643 7.95929 7.06277 7.95929 6.83194C7.95919 6.59383 7.91114 6.37017 7.82301 6.16096ZM6.51669 7.38013C6.35637 7.51717 6.13206 7.58934 5.85959 7.58934H4.72964V6.0599H5.85959C6.13206 6.0599 6.35648 6.13206 6.51669 6.27628C6.66892 6.41333 6.74908 6.60091 6.74908 6.83175C6.74918 7.0555 6.66903 7.24308 6.51669 7.38013Z" fill="#B12A27"/>
<path opacity="0.08" d="M46.6556 11.2762V49.0001H1.19336V40.1553L22.4459 21.0229L23.7041 19.8902L24.4013 19.2625L25.5633 18.2164L26.9417 16.9756L39.9641 5.25226L46.6556 11.2762Z" fill="#040000"/>
<path d="M46.6578 11.2774H34.1309V6.10352e-05L46.6578 11.2774Z" fill="#771B1B"/>
<path d="M40.1681 35.4738C39.9036 35.0554 39.543 34.6586 39.0943 34.2979C38.7257 33.9949 38.2929 33.7135 37.804 33.4538C35.8326 32.4077 33.0198 31.9027 29.1972 31.9027H28.8126C28.6042 31.7296 28.3879 31.5565 28.1634 31.3761C26.713 30.2001 25.559 28.9232 24.6614 27.502C26.4244 24.003 27.2659 20.8864 27.1617 18.2315C27.1456 17.7842 27.0736 17.3657 26.9454 16.9761C26.753 16.3485 26.4325 15.7929 25.9837 15.3384C25.9757 15.3313 25.9757 15.3313 25.9676 15.324C25.2544 14.6026 24.2607 14.1913 23.2509 14.1913C22.2331 14.1913 21.2956 14.5881 20.6144 15.3168C19.9412 16.0382 19.5806 17.0267 19.5646 18.1881C19.5405 19.9628 19.7007 21.6438 20.0374 23.1948C20.0694 23.3175 20.0936 23.4401 20.1256 23.5627C20.4621 24.9696 20.959 26.3042 21.6001 27.545C20.8468 28.923 20.0855 30.1133 19.5565 30.9214C19.1558 31.5346 18.7151 32.1767 18.2582 32.8188C16.1987 33.1507 14.4517 33.5547 12.9291 34.0597C10.8696 34.7307 9.21873 35.5963 8.03264 36.628C7.26329 37.2917 6.74238 37.9987 6.48596 38.7346C6.21349 39.4921 6.22955 40.2496 6.53401 40.9277C6.81446 41.5554 7.31931 42.082 7.99257 42.4427C8.15288 42.5293 8.32117 42.6014 8.49743 42.6664C9.01036 42.854 9.57125 42.9549 10.1563 42.9549C11.5106 42.9549 12.905 42.4283 14.083 41.4832C16.2788 39.7157 18.5467 36.8733 19.885 35.0768C20.9828 34.9253 22.1769 34.7954 23.5233 34.6656C25.11 34.5213 26.5125 34.4347 27.7867 34.3914C28.1794 34.7088 28.556 35.0118 28.9166 35.3004C30.9201 36.9092 32.4427 38.0707 33.8211 38.8859C33.8211 38.8931 33.829 38.8931 33.8371 38.8931C34.3821 39.2177 34.903 39.4846 35.4239 39.7011C36.0089 39.9464 36.6019 40.0763 37.2109 40.0763C37.9803 40.0763 38.7015 39.8671 39.3026 39.4847C39.9116 39.0879 40.3523 38.518 40.5527 37.876C40.7851 37.1042 40.6489 36.2457 40.1681 35.4738ZM22.4496 21.0234C22.3374 20.1288 22.2893 19.1982 22.3053 18.217C22.3214 17.2864 22.698 16.6587 23.2509 16.6587C23.6677 16.6587 24.1084 16.9978 24.3087 17.647C24.3648 17.8418 24.4049 18.0654 24.4129 18.3179C24.4289 18.6209 24.4208 18.9383 24.4049 19.263C24.3568 20.1792 24.1805 21.1531 23.876 22.1992C23.6917 22.8702 23.4513 23.57 23.1548 24.2986C22.8182 23.2743 22.5778 22.1849 22.4496 21.0234ZM9.08255 40.0116C8.94626 39.7086 9.0986 39.1242 9.93206 38.4028C11.2063 37.3062 13.2017 36.4405 15.9825 35.784C15.4536 36.4332 14.9327 37.0249 14.4278 37.5659C13.6585 38.4027 12.9212 39.1098 12.2561 39.6436C11.6871 40.1053 11.062 40.3939 10.469 40.4661C10.3648 40.4805 10.2607 40.4877 10.1565 40.4877C9.63546 40.4878 9.21076 40.3002 9.08255 40.0116ZM21.8886 32.3428L21.9447 32.2634L21.8566 32.2779C21.8726 32.2418 21.8967 32.2057 21.9207 32.1769C22.2573 31.6647 22.682 31.0082 23.1388 30.2507L23.1788 30.33L23.283 30.1353C23.6196 30.5681 23.9883 30.9938 24.3729 31.405C24.5572 31.5997 24.7496 31.7873 24.9419 31.9749L24.8137 31.9821L24.9258 32.0758C24.5972 32.0975 24.2527 32.1264 23.908 32.1552C23.6917 32.1768 23.4673 32.1913 23.2428 32.2129C22.7782 32.2561 22.3214 32.2995 21.8886 32.3428ZM35.3758 36.8445C34.4221 36.2962 33.3564 35.5242 32.0421 34.4925C33.9093 34.6657 35.3758 35.0337 36.4177 35.5819C36.8745 35.82 37.219 36.0653 37.4514 36.3034C37.836 36.6712 37.9723 37.0031 37.9001 37.2268C37.836 37.4505 37.5556 37.602 37.2109 37.602C37.0105 37.602 36.8023 37.5587 36.5858 37.4649C36.2172 37.3062 35.8325 37.1114 35.4239 36.8734C35.4078 36.8734 35.3919 36.8589 35.3758 36.8445Z" fill="#F2F2F2"/>
</svg>
