<svg width="32" height="32" viewBox="0 0 32 32" fill="none" xmlns="http://www.w3.org/2000/svg">
<path d="M29.3337 29.3333L26.667 26.6666M15.3337 28C16.9971 28 18.6442 27.6723 20.181 27.0358C21.7178 26.3992 23.1141 25.4662 24.2903 24.29C25.4666 23.1138 26.3996 21.7174 27.0361 20.1806C27.6727 18.6438 28.0003 16.9967 28.0003 15.3333C28.0003 13.6699 27.6727 12.0228 27.0361 10.486C26.3996 8.94918 25.4666 7.55282 24.2903 6.37661C23.1141 5.2004 21.7178 4.26738 20.181 3.63082C18.6442 2.99426 16.9971 2.66663 15.3337 2.66663C11.9743 2.66663 8.75243 4.00115 6.37697 6.37661C4.00151 8.75207 2.66699 11.9739 2.66699 15.3333C2.66699 18.6927 4.00151 21.9145 6.37697 24.29C8.75243 26.6654 11.9743 28 15.3337 28Z" stroke="#ED1C24" stroke-width="2" stroke-linecap="round" stroke-linejoin="round"/>
</svg>
