<svg width="24" height="29" viewBox="0 0 24 29" fill="none" xmlns="http://www.w3.org/2000/svg">
<path d="M8.30621 13.3611C8.30621 15.3555 6.68945 16.9722 4.6951 16.9722C2.70074 16.9722 1.08398 15.3555 1.08398 13.3611C1.08398 11.3668 2.70074 9.75 4.6951 9.75C6.68945 9.75 8.30621 11.3668 8.30621 13.3611Z" stroke="#ED1C24" stroke-width="2.16667"/>
<path d="M15.992 21.0191L8.30664 15.9467" stroke="#ED1C24" stroke-width="2.16667" stroke-linecap="round"/>
<path d="M16.1345 6.62976L8.44922 11.7022" stroke="#ED1C24" stroke-width="2.16667" stroke-linecap="round"/>
<path d="M22.7496 23.4723C22.7496 25.4667 21.1328 27.0834 19.1385 27.0834C17.1441 27.0834 15.5273 25.4667 15.5273 23.4723C15.5273 21.478 17.1441 19.8612 19.1385 19.8612C21.1328 19.8612 22.7496 21.478 22.7496 23.4723Z" stroke="#ED1C24" stroke-width="2.16667"/>
<path d="M22.7496 4.69449C22.7496 6.68884 21.1328 8.3056 19.1385 8.3056C17.1441 8.3056 15.5273 6.68884 15.5273 4.69449C15.5273 2.70013 17.1441 1.08337 19.1385 1.08337C21.1328 1.08337 22.7496 2.70013 22.7496 4.69449Z" stroke="#ED1C24" stroke-width="2.16667"/>
</svg>
