<svg width="27" height="24" viewBox="0 0 27 24" fill="none" xmlns="http://www.w3.org/2000/svg">
<path d="M18.0237 11.5461C18.0237 14.068 15.9858 16.1058 13.464 16.1058C10.9421 16.1058 8.9043 14.068 8.9043 11.5461C8.9043 9.0243 10.9421 6.98645 13.464 6.98645C15.9858 6.98645 18.0237 9.0243 18.0237 11.5461Z" stroke="#ED1C24" stroke-width="2" stroke-linecap="round" stroke-linejoin="round"/>
<path d="M13.4627 22.079C17.9587 22.079 22.1491 19.4298 25.0657 14.8446C26.212 13.0488 26.212 10.0302 25.0657 8.23436C22.1491 3.6492 17.9587 1 13.4627 1C8.96672 1 4.77639 3.6492 1.85972 8.23436C0.713427 10.0302 0.713427 13.0488 1.85972 14.8446C4.77639 19.4298 8.96672 22.079 13.4627 22.079Z" stroke="#ED1C24" stroke-width="2" stroke-linecap="round" stroke-linejoin="round"/>
</svg>
