<svg width="39" height="48" viewBox="0 0 39 48" fill="none" xmlns="http://www.w3.org/2000/svg">
<path d="M34.6745 14.3174H31.623L31.6373 18.1185C31.6373 24.4176 26.141 29.5372 19.3824 29.5372C12.6238 29.5372 7.12751 24.4176 7.12751 18.1223L7.11321 14.3174M7.11321 14.3174H4.03723M7.11321 14.3174H31.6109L31.6107 11.3647C31.6107 5.64966 26.6169 1 20.4792 1H18.2325C12.0948 1 7.10095 5.65157 7.10095 11.3723L7.10108 14.3174" stroke="#ED1C24" stroke-width="2"/>
<path d="M15.271 7.65868L15.2711 1" stroke="#ED1C24" stroke-width="2"/>
<path d="M23.4408 7.65868V1" stroke="#ED1C24" stroke-width="2"/>
<path d="M37.7381 47.5729V41.8654C37.7381 36.6203 33.1568 32.353 27.5257 32.353H11.2124C5.58129 32.353 1 36.6203 1 41.8654V47.5729" stroke="#ED1C24" stroke-width="2"/>
</svg>
