<svg width="40" height="50" viewBox="0 0 40 50" fill="none" xmlns="http://www.w3.org/2000/svg">
<path d="M8.88268 33.3652L7.47167 33.1569C5.40806 32.8267 3.05364 31.2901 1.9952 29.5819C0.818864 27.6809 0.664843 24.7842 1.64469 22.9865C2.52672 21.3702 2.52672 18.7395 1.64469 17.1216C0.663969 15.3247 0.818864 12.4289 1.9952 10.5295C3.17066 8.63172 5.78359 7.02921 7.94414 6.88116C9.89073 6.74938 12.3411 5.43247 13.4057 3.9455C14.5855 2.29421 17.3537 1 19.7081 1C22.0232 1 24.8512 2.32104 26.011 3.94386C27.0747 5.43083 29.5242 6.7478 31.4734 6.87957C33.6348 7.02681 36.2477 8.62845 37.4223 10.5262C38.5995 12.4272 38.7531 15.323 37.7715 17.1191C36.8913 18.7379 36.8921 21.3686 37.7715 22.9841C38.7523 24.7826 38.5987 27.6784 37.4215 29.5778C36.363 31.2869 34.0086 32.8242 31.945 33.1545L30.537 33.3668M8.88268 33.3652L9.28436 33.4831C10.955 33.9728 12.611 35.049 13.4065 36.161C14.0694 37.0883 15.2885 37.9424 16.7522 38.5045L17.3057 38.7176M8.88268 33.3652L3.01348 42.8377L8.8976 42.4896C8.9107 42.4887 8.91748 42.4896 8.92447 42.4896C9.038 42.4896 9.14668 42.5538 9.19908 42.653L11.816 47.5719L17.3057 38.7176M30.537 33.3668L36.4074 42.8393L30.5178 42.4903C30.5099 42.4903 30.503 42.4903 30.496 42.4903C30.3816 42.4903 30.2743 42.5547 30.221 42.6539L27.6036 47.5728L22.114 38.7176M30.537 33.3668L30.1361 33.484L30.1344 33.4848C28.4656 33.9728 26.8091 35.049 26.0135 36.1618C25.3498 37.0891 24.1307 37.9432 22.6679 38.5053L22.114 38.7176M22.114 38.7176L21.1115 38.9495C20.5718 39.0544 20.1125 39.1057 19.7073 39.1057C19.3021 39.1057 18.8446 39.0544 18.3014 38.9503L17.3057 38.7176M13.1933 20.2598L17.3897 24.1684C17.4491 24.2245 17.5284 24.2547 17.6123 24.2547L17.6131 24.253C17.697 24.253 17.7763 24.2221 17.8357 24.1668L26.2272 16.3505M19.7098 32.071C12.595 32.071 6.80774 26.6795 6.80774 20.0533C6.80774 13.427 12.5959 8.03544 19.7098 8.03544C26.8237 8.03544 32.6119 13.427 32.6119 20.0533C32.6119 26.6795 26.8237 32.071 19.7098 32.071Z" stroke="#ED1C24" stroke-width="2"/>
</svg>
