<svg width="51" height="49" viewBox="0 0 51 49" fill="none" xmlns="http://www.w3.org/2000/svg">
<path d="M7.5733 31.692L6.61719 29.9529C6.47462 29.6931 6.2333 29.5016 5.937 29.4136C5.82192 29.3786 5.70452 29.3615 5.58601 29.3615C5.39964 29.3615 5.22091 29.4039 5.05343 29.4862L1.62316 31.1821C1.3492 31.3173 1.14728 31.5462 1.05452 31.8272C0.960912 32.1066 0.9887 32.4046 1.13127 32.6644L8.99615 46.9798C9.13872 47.2396 9.38006 47.4311 9.6755 47.5191C9.79144 47.5541 9.91009 47.5712 10.0277 47.5712L10.0286 47.5728C10.2158 47.5728 10.3945 47.5306 10.5612 47.4483L13.991 45.7524C14.265 45.6172 14.4669 45.3883 14.5597 45.1073C14.6533 44.8279 14.6259 44.5298 14.4833 44.2699L13.5285 42.5317M7.5733 31.692L14.8528 28.0942C15.4059 27.8205 15.946 27.6933 16.5541 27.6933C16.6142 27.6933 16.6759 27.695 16.7386 27.6974L27.1061 28.1226C28.1608 28.1658 29.1366 28.5982 29.8546 29.3402C30.5734 30.0831 30.9434 31.0427 30.8979 32.0422C30.891 32.201 30.8721 32.3614 30.8438 32.5194L30.7058 33.2745M7.5733 31.692L13.3335 42.1807L13.5285 42.5317M30.7058 33.2745L43.2796 27.0589C43.8498 26.7771 44.4623 26.6345 45.0987 26.6345C45.5041 26.6345 45.9085 26.6938 46.3018 26.8111C47.3144 27.1133 48.1414 27.7691 48.6292 28.6569C49.117 29.5456 49.21 30.563 48.8896 31.5225C48.571 32.4837 47.8796 33.2672 46.9434 33.7307L27.6131 43.2852C26.9922 43.5914 26.3197 43.7406 25.5579 43.7406C24.8889 43.7406 24.2336 43.6265 23.6256 43.5027L15.9527 41.9413C15.6573 41.881 15.4514 41.8555 15.2633 41.8555C15.016 41.8555 14.7995 41.903 14.602 42.0007L13.5285 42.5317M30.7058 33.2745L30.5675 33.5026L30.2005 34.0043C30.0279 34.2397 29.8295 34.4564 29.6105 34.647C28.8753 35.2873 27.9257 35.6399 26.9363 35.6399C26.871 35.6399 26.8142 35.6392 26.7635 35.6368L19.7847 35.3508" stroke="#ED1C24" stroke-width="2"/>
<path d="M16.3846 21.1379C16.4164 22.2106 17.3468 23.0732 18.4847 23.0732H32.2901C33.4487 23.0732 34.3911 22.1796 34.3911 21.0808V20.6507C34.3911 15.9418 30.3529 12.112 25.3881 12.112C20.4232 12.112 16.3846 15.9426 16.3846 20.6507V21.0808V21.1379Z" stroke="#ED1C24" stroke-width="2"/>
<path d="M20.8826 5.27154C20.8826 7.62717 22.9027 9.54287 25.3864 9.54287C27.8701 9.54287 29.8898 7.62717 29.8898 5.27154C29.8898 2.9159 27.8701 1 25.3864 1C22.9027 1 20.8826 2.9159 20.8826 5.27154Z" stroke="#ED1C24" stroke-width="2"/>
</svg>
