<svg width="37" height="41" viewBox="0 0 37 41" fill="none" xmlns="http://www.w3.org/2000/svg">
<path d="M30.3841 3.47363H33.912H33.9146C35.0649 3.47363 36 4.33095 36 5.38465V38.0351C36 39.0889 35.0649 39.9462 33.9146 39.9462H3.08623C1.93592 39.9462 1 39.0889 1 38.0351V5.38465C1 4.33095 1.93592 3.47363 3.08623 3.47363H30.3841Z" stroke="#ED1C24" stroke-width="2"/>
<path d="M27.5306 0V6.20281" stroke="#ED1C24" stroke-width="2"/>
<path d="M18.3469 0V6.20281" stroke="#ED1C24" stroke-width="2"/>
<path d="M9.16327 0V6.20281" stroke="#ED1C24" stroke-width="2"/>
<path d="M20.1447 15.6842H31.3691" stroke="#ED1C24" stroke-width="2"/>
<path d="M6.10205 15.9616L7.77715 17.4167L8.16678 17.7303L13.5847 13.0259" stroke="#ED1C24" stroke-width="2"/>
<path d="M20.1447 27.5936H31.3691" stroke="#ED1C24" stroke-width="2"/>
<path d="M6.10205 27.8709L7.77715 29.3257L8.16678 29.6394L13.5847 24.9352" stroke="#ED1C24" stroke-width="2"/>
</svg>
