<svg width="22" height="22" viewBox="0 0 22 22" fill="none" xmlns="http://www.w3.org/2000/svg">
<path d="M20.1667 9.73433C20.1667 5.36326 16.615 1.80664 12.25 1.80664M12.25 5.14462C14.7775 5.14462 16.8333 7.20331 16.8333 9.73433M19.5283 19.5572L20.3433 18.6184C20.7667 18.1944 21 17.6303 21 17.0311C21 16.432 20.7667 15.867 20.3025 15.4081L18.2642 13.8451C17.3908 12.9705 15.97 12.9697 15.095 13.8425L13.8183 15.0893C10.7517 13.8384 8.25333 11.3341 6.90667 8.16048L8.14667 6.88788C9.02083 6.01249 9.02083 4.58801 8.1825 3.75352L6.55 1.6314C5.7025 0.782719 4.20583 0.802747 3.4 1.61221L2.42167 2.46673C1.50417 3.3805 1 4.62139 1 5.95908C1 12.4256 9.5625 21 16.02 21C17.3558 21 18.5942 20.4951 19.5283 19.5572Z" stroke="#ED1C24" stroke-width="2"/>
</svg>
