<svg id="eajCbBQwVig1" xmlns="http://www.w3.org/2000/svg" xmlns:xlink="http://www.w3.org/1999/xlink" viewBox="0 0 62 62" shape-rendering="geometricPrecision" text-rendering="geometricPrecision" project-id="fea8169099e44b468254b6f16328048d" export-id="d169e5369d9e47c98247d071c088fe8e" cached="false">
<style><![CDATA[
#eajCbBQwVig5_to {animation: eajCbBQwVig5_to__to 3000ms linear infinite normal forwards}@keyframes eajCbBQwVig5_to__to { 0% {transform: translate(32.293713px,27.307275px)} 16.666667% {transform: translate(52.293713px,27.307275px)} 33.333333% {transform: translate(43.293713px,27.307275px)} 50% {transform: translate(33.293713px,27.307275px)} 66.666667% {transform: translate(51.293713px,27.307275px)} 100% {transform: translate(51.293713px,27.307275px)}}
]]></style>
<path d="M23.586,58.2283h-9.92v-42.0825-12.37413h9.92v54.45663Z" fill="none" stroke="#ed1c24" stroke-width="2" stroke-miterlimit="10"/><path d="M3.77148,16.1458h54.45672v-2.48L23.5857,3.77167h-9.92L3.77148,13.6658v2.48Z" fill="none" stroke="#ed1c24" stroke-width="2" stroke-miterlimit="10"/><path d="M60.7087,58.2283h-59.41671" fill="none" stroke="#ed1c24" stroke-width="2" stroke-miterlimit="10"/><g id="eajCbBQwVig5_to" transform="translate(32.293713,27.307275)"><path d="M53.2682,16.1458v8.7575c-.0275.8462.174,1.6841.5832,2.4253.4092.7411,1.011,1.358,1.7418,1.7855.7763.4063,1.4312,1.011,1.8979,1.7525.4668.7416.7288,1.5936.7593,2.4693.0306.8757-.1714,1.7438-.5854,2.5161-.4139.7723-1.0251,1.4211-1.7712,1.8805-.7462.4594-1.6007.7129-2.4766.7347-.876.0219-1.7421-.1887-2.5102-.6103s-1.4109-1.0391-1.8629-1.7898-.6969-1.6077-.7101-2.4838" transform="translate(-53.293713,-27.307275)" fill="none" stroke="#ed1c24" stroke-width="2" stroke-miterlimit="10"/></g><path d="M23.586,43.3741l-9.92,9.92" fill="none" stroke="#ed1c24" stroke-width="2" stroke-miterlimit="10"/><path d="M13.666,31l9.92,9.8942" fill="none" stroke="#ed1c24" stroke-width="2" stroke-miterlimit="10"/><path d="M23.586,18.6259L13.666,28.52" fill="none" stroke="#ed1c24" stroke-width="2" stroke-miterlimit="10"/></svg>
