<svg id="eumEg2fY14G1" xmlns="http://www.w3.org/2000/svg" xmlns:xlink="http://www.w3.org/1999/xlink" viewBox="0 0 58 64" shape-rendering="geometricPrecision" text-rendering="geometricPrecision" project-id="53b8ae0a1bba4eaba743bbc5484dcf84" export-id="172d139b8baf4bdc815b7f3d2be9283c" cached="true">
<style><![CDATA[
#eumEg2fY14G2 {animation: eumEg2fY14G2_s_do 3000ms linear infinite normal forwards}@keyframes eumEg2fY14G2_s_do { 0% {stroke-dashoffset: 302.34} 66.666667% {stroke-dashoffset: 0} 100% {stroke-dashoffset: 0}}
]]></style>
<path id="eumEg2fY14G2" d="M1.00363,35.1008h55.17597m-16.1195,0c-.8608,4.9501-5.9413,9.2819-11.0013,9.2997-5.1994.0178-11.0458-4.2595-11.9381-9.2997m7.7557,27.8991c-1.5558.0001-1.1956-.8964-1.1563-1.8005.0517-1.1878,0-2.3811.0202-3.5711.0068-.3737-.0944-.5505-.4753-.694-1.2518-.4715-2.489-.9876-3.7116-1.5303-.3337-.1479-.5236-.1523-.7843.1157-.8911.9153-1.8047,1.8083-2.7194,2.7014-.7854.7673-1.4484.7785-2.2238.0178-1.708-1.676-3.4093-3.3598-5.10269-5.0502-.75513-.7541-.74277-1.4314.02584-2.201c1.00234-1.0031,2.01595-1.9951,2.95865-2.9271-.5989-1.517-1.1641-2.9772-1.76416-4.4219-.05506-.1323-.33598-.2413-.51465-.2435-1.28439-.0211-2.56878-.0067-3.85316-.0122-1.12145-.0045-1.60465-.4771-1.61476-1.5793-.00674-.724-.00112-1.4491-.00112-2.2587-.52252,0-1.00571.0111-1.48778-.0022-.98773-.0267-1.46081-.4883-1.4653-1.4636-.010115-2.1186.00449-4.2373-.00674-6.3559-.003375-.6951.32137-1.141.9484-1.4035.58095-.2424,1.15066-.5205,1.74735-.7184.45173-.1502.5596-.4037.55398-.8486-.03933-2.7547.21688-5.475,1.0383-8.1252C6.88708,15.465,9.87275,11.2701,14.2406,8.04153c1.8046-1.33456,3.7722-2.38887,5.8915-3.14957.4383-.15792.6012-.3759.5652-.83298-.0404-.5216-.0179-1.04875-.0067-1.57256.0213-1.00204.4989-1.47692,1.5181-1.48137c2.2834-.008894,4.5667-.00333,6.8501-.00333c2.1204,0,4.2408-.002228,6.3601,0c1.1552.00222,1.6384.47265,1.6597,1.60258.0124.66506-.2101,1.48137.1023,1.95069.3079.46153,1.1641.55606,1.7675.83743C46.1997,8.76998,50.8439,14.2951,52.8317,21.9799c.5742,2.2198.7226,4.4975.6619,6.7852-.0112.4248.1068.6561.5259.8018.6124.2146,1.199.5005,1.8013.7485.6562.2702.9821.744.9798,1.4535-.0056,2.0786.0057,4.1561-.0045,6.2347-.0056,1.0398-.4899,1.5147-1.5293,1.538-.445.0101-.89.0012-1.4338.0012c0,.7095,0,1.3657,0,2.0218-.0023,1.3957-.4203,1.8161-1.8092,1.8161-1.3642,0-2.7283,0-3.9745,0-.6664,1.4881-1.3103,2.896-1.9137,4.3218-.0618.1468.0596.4493.1922.5861.8765.9008,1.7822,1.775,2.6721,2.6624.8361.833.8417,1.4603.0101,2.2866-1.6687,1.6582-3.3407,3.3141-5.0161,4.9646-.8114.7996-1.453.7996-2.2643.0055-.899-.8797-1.799-1.7583-2.6755-2.6591-.2675-.2747-.4664-.307-.8316-.1435-1.2214.5461-2.4631,1.0499-3.7115,1.5303-.3315.1279-.4765.2558-.4686.6273.0258,1.21.0101,2.4211.009,3.6311c0,1.121-.1888,1.398-1.2215,1.8028L30.7603,63l-5.8839-.0001Z" fill="none" stroke="#ed1c24" stroke-width="2" stroke-dashoffset="302.34" stroke-dasharray="302.34"/></svg>
