<svg id="evNxusZpLab1" xmlns="http://www.w3.org/2000/svg" xmlns:xlink="http://www.w3.org/1999/xlink" viewBox="0 0 63 63" shape-rendering="geometricPrecision" text-rendering="geometricPrecision" project-id="03c1e70ca3d346d59a9186fb3d368dc7" export-id="6780c0b21c5447ee849fdc479f63dcc8" cached="true">
<style><![CDATA[
#evNxusZpLab2 {animation: evNxusZpLab2_s_do 3000ms linear infinite normal forwards}@keyframes evNxusZpLab2_s_do { 0% {stroke-dashoffset: 98.82} 33.333333% {stroke-dashoffset: 98.82} 63.333333% {stroke-dashoffset: 197.64} 100% {stroke-dashoffset: 197.64}} #evNxusZpLab3 {animation: evNxusZpLab3_s_do 3000ms linear infinite normal forwards}@keyframes evNxusZpLab3_s_do { 0% {stroke-dashoffset: 96.61} 33.333333% {stroke-dashoffset: 96.61} 63.333333% {stroke-dashoffset: 193.22} 100% {stroke-dashoffset: 193.22}} #evNxusZpLab4 {animation: evNxusZpLab4_s_do 3000ms linear infinite normal forwards}@keyframes evNxusZpLab4_s_do { 0% {stroke-dashoffset: 106.16} 33.333333% {stroke-dashoffset: 212.32} 100% {stroke-dashoffset: 212.32}}
]]></style>
<path id="evNxusZpLab2" d="M10.3071,62.0005L9.17649,52.8026c-.00225-.0269-.00225-.0549,0-.0817.02249-.2185.20572-.3832.42501-.3832.01349,0,.02714.0001.04063.0024h9.66257m-9.61661.4625l2.98021,2.1023c5.444,4.1935,11.7967,6.4101,18.3686,6.409c9.4329,0,18.5588-4.5216,24.4111-12.0943c5.7386-7.4248,7.5325-16.6575,5.0517-25.9976" fill="none" stroke="#ed1c24" stroke-width="2" stroke-dashoffset="98.82" stroke-dasharray="98.82"/><path id="evNxusZpLab3" d="M52.2527,0.249512L53.385,9.46641c.0022.028.0022.05608,0,.08408-.0236.21617-.2047.37969-.4217.37969-.0135,0-.0283-.00008-.0418-.00232h-9.4383m9.4801-.46145L49.8954,7.36413C44.5233,3.2009,38.0887,0.999995,31.2873,0.999995c-8.0856,0-15.69,3.129465-21.41179,8.812605-7.16799,7.1325-10.267382,17.2979-8.29039,27.1947" fill="none" stroke="#ed1c24" stroke-width="2" stroke-dashoffset="96.61" stroke-dasharray="96.61"/><path id="evNxusZpLab4" d="M45.6482,26.5553v16.4645c0,.8796-.7184,1.595-1.6015,1.595h-21.2275-2.6897c-.8831,0-1.6015-.7154-1.6015-1.595v-16.3966m30.8395,2.8374L32.2459,15.6348c-.0571-.0455-.1175-.0555-.1582-.0555l-.0013-.0007c-.0407,0-.1011.01-.1582.0562L14.8066,29.4606" fill="none" stroke="#ed1c24" stroke-width="2" stroke-dashoffset="106.16" stroke-dasharray="106.16"/></svg>
