<svg id="eluBU3vsSiD1" xmlns="http://www.w3.org/2000/svg" xmlns:xlink="http://www.w3.org/1999/xlink" viewBox="0 0 71 64" shape-rendering="geometricPrecision" text-rendering="geometricPrecision" project-id="4424c2add0154bcc9c94a3eb3e1bde0c" export-id="a9e9a9885a1f421ba2b6260012bd6838" cached="false">
<style><![CDATA[
#eluBU3vsSiD2_to {animation: eluBU3vsSiD2_to__to 3000ms linear infinite normal forwards}@keyframes eluBU3vsSiD2_to__to { 0% {transform: translate(35.166801px,33.242504px)} 33.333333% {transform: translate(35.166801px,33.242504px)} 66.666667% {transform: translate(35.166801px,28.242504px)} 100% {transform: translate(35.166801px,28.242504px)}} #eluBU3vsSiD2 {animation: eluBU3vsSiD2_c_o 3000ms linear infinite normal forwards}@keyframes eluBU3vsSiD2_c_o { 0% {opacity: 0} 33.333333% {opacity: 0} 66.666667% {opacity: 1} 100% {opacity: 1}} #eluBU3vsSiD3 {animation: eluBU3vsSiD3_s_do 3000ms linear infinite normal forwards}@keyframes eluBU3vsSiD3_s_do { 0% {stroke-dashoffset: 70.79} 33.333333% {stroke-dashoffset: 0} 100% {stroke-dashoffset: 0}}
]]></style>
<g id="eluBU3vsSiD2_to" transform="translate(35.166801,33.242504)"><path id="eluBU3vsSiD2" d="M37.1779,55.3737v-53.8311M17.9216,54.5675v-48.9722M52.2513,52.5639v-46.38949M68.719,32.5001c-2.4913,0-65.18558-.0432-67.59098,0M69.3336,35.3117c-.0694,6.9122-2.0981,13.169-5.7624,18.9569-.7203,1.1376-1.467,1.4968-2.6962.9946-1.1663-.4757-2.3855-.8316-3.5453-1.3239-4.4903-1.9027-9.0169-2.0524-13.4147.0798-3.8625,1.8727-7.5168,1.8661-11.376.0067-4.4606-2.1455-9.1095-2.1855-13.5337.0498-4.2722,2.1622-8.2768,1.5435-12.28468-.4856-.4857-.2461-.90202-.775-1.18948-1.2673C-6.19846,32.012,5.98711,5.60075,28.954,1.5426c18.7806-3.31637,36.3783,8.9013,39.765,27.6653.3635,2.0057.4163,4.0681.6146,6.1038Z" transform="translate(-35.166801,-28.242504)" opacity="0" fill="none" stroke="#ed1c24" stroke-width="2"/></g><path id="eluBU3vsSiD3" d="M1.11035,59.5712c2.20385.6819,4.30857,1.1143,6.22165,1.9725c4.074,1.8262,8.0488,1.9526,12.0765-.0233c4.2822-2.0989,8.561-2.0756,12.8464.0233c3.9584,1.9393,7.9398,1.9426,11.9014.0066c4.2822-2.0922,8.561-2.1321,12.853-.0532c4.0013,1.9393,8.029,2.0624,12.1988-.0831" fill="none" stroke="#ed1c24" stroke-width="2" stroke-dashoffset="70.79" stroke-dasharray="70.79"/></svg>
