<svg width="32" height="34" viewBox="0 0 32 34" fill="none" xmlns="http://www.w3.org/2000/svg">
<path d="M15.9418 30.9175C14.7286 32.5417 13.1391 33.0294 11.2701 32.9986C8.30867 32.949 5.34724 32.9867 2.38408 32.985C1.1864 32.985 1.01037 32.8224 1.01037 31.6774C1.00692 27 1.01554 22.3243 1.00001 17.6468C0.998287 17.0512 1.17259 16.6491 1.6886 16.2931C2.85867 15.4836 3.37123 14.277 3.38849 12.9027C3.42818 9.79465 3.41092 6.68664 3.4161 3.57863C3.41725 2.62934 3.89184 2.05257 4.83986 1.84834C5.28857 1.75079 5.76143 1.70458 6.17906 1.53001C8.52957 0.547629 10.8576 1.28698 13.1978 1.56595C16.0488 1.90482 18.8721 1.70458 21.68 1.09701C22.2719 0.968648 22.9294 0.973783 23.5283 1.07647C24.8278 1.29896 26.1049 1.65323 27.4027 1.89626C28.1965 2.04516 28.5002 2.43537 28.4916 3.23805C28.4606 6.23139 28.4899 9.22645 28.4761 12.2215C28.4675 13.9706 28.9162 15.4767 30.4711 16.5207C30.7023 16.6747 30.8646 17.0957 30.8663 17.3935C30.8904 22.2421 30.8801 27.089 30.8887 31.9375C30.8887 32.7111 30.5125 32.9952 29.767 32.9918C26.488 32.9781 23.2107 32.9952 19.9318 32.9815C18.3044 32.9747 16.9997 32.2884 15.9452 30.9192L15.9418 30.9175ZM15.9418 30.9175C15.9452 27.4158 16.0694 20.0272 16.0556 16.1217C16.0556 14.2393 16.2075 15.2748 16.0556 14.9564M23.5283 1.53001C21.6455 5.46466 17.9402 11.0235 16.0556 14.9564M16.0556 14.9564C14.1193 10.9208 9.92781 5.1121 7.98976 1.07647M31 27.8864L1.00001 27.7821M30.4711 21.2981H1.57829" stroke="#FDFDFD" stroke-width="2"/>
</svg>
