<svg width="32" height="36" viewBox="0 0 32 36" fill="none" xmlns="http://www.w3.org/2000/svg">
<path d="M30.0422 8.13963C29.8678 7.19761 29.2358 6.41431 28.3511 6.04498L16.7977 1.21846C16.4507 1.07362 16.0837 1 15.7072 1C15.3306 1 14.9645 1.07362 14.6169 1.21846L3.06352 6.04498C2.17943 6.41431 1.54746 7.19761 1.37245 8.13963C1.33443 8.34481 0.452887 13.2341 1.54335 18.8886C2.20174 22.3036 3.44182 25.3089 5.22869 27.8193C7.49954 31.0105 10.6224 33.3664 14.5106 34.8208C14.8286 34.9396 15.1624 35 15.5015 35H15.9126C16.2517 35 16.5852 34.9396 16.9032 34.8208C20.7914 33.3664 23.9145 31.0105 26.1854 27.8193C27.9722 25.3089 29.2117 22.3036 29.8707 18.8886C30.9606 13.2377 30.0793 8.34541 30.0413 8.13963H30.0422Z" stroke="#FDFDFD" stroke-width="2"/>
<path d="M10.8184 18.3401C11.6777 19.2007 12.5541 20.0739 13.4014 20.9181L13.7482 21.2639C13.8677 21.3828 13.9775 21.4516 14.0499 21.4516C14.1205 21.4516 14.2275 21.3852 14.3434 21.2694L18.0438 17.5792C18.2924 17.3311 18.5409 17.0831 18.7901 16.8357C19.3779 16.2503 19.9858 15.645 20.5808 15.0482" stroke="#FDFDFD" stroke-width="2"/>
</svg>
