<svg width="31" height="35" viewBox="0 0 31 35" fill="none" xmlns="http://www.w3.org/2000/svg">
<path d="M20.3027 25.6209C20.6304 25.9491 20.9646 26.282 21.2876 26.6039L21.4199 26.7358C21.4654 26.7811 21.5073 26.8073 21.5349 26.8073C21.5619 26.8073 21.6027 26.782 21.6468 26.7378L23.0578 25.3308C23.1526 25.2362 23.2473 25.1416 23.3424 25.0473C23.5665 24.8241 23.7983 24.5933 24.0252 24.3657" stroke="#FDFDFD" stroke-width="2" stroke-linecap="round"/>
<path d="M4.04688 7.86731H8.269" stroke="#FDFDFD" stroke-width="2" stroke-linecap="round"/>
<path d="M4.04688 11.9309H17.2698" stroke="#FDFDFD" stroke-width="2" stroke-linecap="round"/>
<path d="M4.04688 15.9945H18.2695" stroke="#FDFDFD" stroke-width="2" stroke-linecap="round"/>
<path d="M19.4507 31.3418H1.24683C1.11075 31.3418 1 31.231 1 31.095V1.24683C1 1.11075 1.11075 1 1.24683 1H21.0484C21.1142 1 21.1761 1.02585 21.2227 1.07252L25.4232 5.27285C25.4693 5.31896 25.4957 5.3825 25.4957 5.44716V19.1389M25.0014 5.69399H21.0478C20.9118 5.69399 20.801 5.58324 20.801 5.44716V1.49369M17.6628 19.9576C17.6184 21.2374 16.8244 22.3783 15.6396 22.8647L15.3777 22.9721L15.4389 23.2487C16.1817 26.5961 17.677 31.2434 22.0623 32.9522L22.1842 33L22.3064 32.9522C26.6906 31.2434 28.1867 26.5961 28.9312 23.2487L28.993 22.9721L28.7305 22.8647C27.5452 22.3794 26.75 21.238 26.7056 19.9576L26.6944 19.6326H17.6741L17.6628 19.9576Z" stroke="#FDFDFD" stroke-width="2"/>
</svg>
