<svg width="875" height="650" viewBox="0 0 875 650" fill="none" xmlns="http://www.w3.org/2000/svg">
<g opacity="0.3">
<path d="M-228.312 0.564453L124.062 322.781L124.431 323.118L124.81 322.793L499.93 0.564453H873.478L453.865 361.012L118.768 648.859L-590.547 0.564453H-228.312Z" fill="url(#paint0_linear_771_9323)" fill-opacity="0.1" stroke="url(#paint1_linear_771_9323)" stroke-width="1.12816"/>
<path d="M874.438 561.515C824.517 631.591 764.08 649.05 740.215 649.05H120.28L227.16 557.239L335.036 464.574H545.268L545.323 464.562C622.802 448.903 642.438 409.025 642.438 390.745V200.515L874.437 1.22754L874.438 561.515Z" fill="url(#paint2_linear_771_9323)" fill-opacity="0.1" stroke="url(#paint3_linear_771_9323)" stroke-width="1.12816"/>
</g>
<defs>
<linearGradient id="paint0_linear_771_9323" x1="141.5" y1="0" x2="141.5" y2="649.614" gradientUnits="userSpaceOnUse">
<stop stop-color="white"/>
<stop offset="1" stop-color="#ED1C24"/>
</linearGradient>
<linearGradient id="paint1_linear_771_9323" x1="141.5" y1="0" x2="141.5" y2="649.614" gradientUnits="userSpaceOnUse">
<stop stop-color="white"/>
<stop offset="0.472236" stop-color="#ED1C24"/>
<stop offset="1" stop-color="white"/>
</linearGradient>
<linearGradient id="paint2_linear_771_9323" x1="496.88" y1="0" x2="496.88" y2="649.614" gradientUnits="userSpaceOnUse">
<stop stop-color="#FFE4E5"/>
<stop offset="1" stop-color="#A71E22"/>
</linearGradient>
<linearGradient id="paint3_linear_771_9323" x1="763.368" y1="354.806" x2="545.224" y2="681.859" gradientUnits="userSpaceOnUse">
<stop stop-color="white"/>
<stop offset="1" stop-color="#A71E22"/>
</linearGradient>
</defs>
</svg>
