<svg width="739" height="708" viewBox="0 0 739 708" fill="none" xmlns="http://www.w3.org/2000/svg">
<g opacity="0.3">
<path d="M-463.718 0.614258L-79.7637 351.709L-79.3623 352.077L-78.9492 351.722L329.791 0.614258H736.817L279.598 393.366L-85.5322 707.012L-858.416 0.614258H-463.718Z" fill="url(#paint0_linear_750_5840)" fill-opacity="0.1" stroke="url(#paint1_linear_750_5840)" stroke-width="1.22927"/>
<path d="M737.86 611.839C683.466 688.196 617.613 707.219 591.608 707.219H-83.8857L32.5723 607.181L150.117 506.21H379.189L379.25 506.197C463.672 489.134 485.068 445.682 485.068 425.765V218.486L737.86 1.33789V611.839Z" fill="url(#paint2_linear_750_5840)" fill-opacity="0.1" stroke="url(#paint3_linear_750_5840)" stroke-width="1.22927"/>
</g>
<defs>
<linearGradient id="paint0_linear_750_5840" x1="-60.7624" y1="0" x2="-60.7624" y2="707.833" gradientUnits="userSpaceOnUse">
<stop stop-color="white"/>
<stop offset="1" stop-color="#ED1C24"/>
</linearGradient>
<linearGradient id="paint1_linear_750_5840" x1="-60.7624" y1="0" x2="-60.7624" y2="707.833" gradientUnits="userSpaceOnUse">
<stop stop-color="white"/>
<stop offset="0.472236" stop-color="#ED1C24"/>
<stop offset="1" stop-color="white"/>
</linearGradient>
<linearGradient id="paint2_linear_750_5840" x1="326.465" y1="0" x2="326.465" y2="707.833" gradientUnits="userSpaceOnUse">
<stop stop-color="#FFE4E5"/>
<stop offset="1" stop-color="#A71E22"/>
</linearGradient>
<linearGradient id="paint3_linear_750_5840" x1="616.837" y1="386.604" x2="379.142" y2="742.969" gradientUnits="userSpaceOnUse">
<stop stop-color="white"/>
<stop offset="1" stop-color="#A71E22"/>
</linearGradient>
</defs>
</svg>
