<svg width="32" height="32" viewBox="0 0 32 32" fill="none" xmlns="http://www.w3.org/2000/svg">
<path d="M15.9998 17.9067C16.5461 17.9067 17.0871 17.7991 17.5918 17.59C18.0965 17.3809 18.5551 17.0745 18.9414 16.6882C19.3277 16.3019 19.6341 15.8433 19.8432 15.3386C20.0522 14.8339 20.1598 14.293 20.1598 13.7467C20.1598 13.2004 20.0522 12.6594 19.8432 12.1547C19.6341 11.65 19.3277 11.1914 18.9414 10.8051C18.5551 10.4188 18.0965 10.1124 17.5918 9.90333C17.0871 9.69427 16.5461 9.58667 15.9998 9.58667C14.8965 9.58667 13.8384 10.025 13.0583 10.8051C12.2781 11.5853 11.8398 12.6434 11.8398 13.7467C11.8398 14.85 12.2781 15.9081 13.0583 16.6882C13.8384 17.4684 14.8965 17.9067 15.9998 17.9067Z" stroke="#ED1C24" stroke-width="2"/>
<path d="M4.82758 11.32C7.45425 -0.226667 24.5609 -0.213334 27.1742 11.3333C28.7076 18.1067 24.4942 23.84 20.8009 27.3867C19.5103 28.6314 17.7873 29.3269 15.9942 29.3269C14.2012 29.3269 12.4781 28.6314 11.1876 27.3867C7.50758 23.84 3.29425 18.0933 4.82758 11.32Z" stroke="#ED1C24" stroke-width="2"/>
</svg>
