<svg width="23" height="27" viewBox="0 0 23 27" fill="none" xmlns="http://www.w3.org/2000/svg">
<path d="M11.4959 15.24C12.0422 15.24 12.5832 15.1324 13.0879 14.9233C13.5926 14.7143 14.0512 14.4079 14.4375 14.0216C14.8238 13.6353 15.1302 13.1767 15.3393 12.672C15.5483 12.1673 15.6559 11.6263 15.6559 11.08C15.6559 10.5337 15.5483 9.99275 15.3393 9.48804C15.1302 8.98333 14.8238 8.52473 14.4375 8.13844C14.0512 7.75215 13.5926 7.44572 13.0879 7.23666C12.5832 7.0276 12.0422 6.92 11.4959 6.92C10.3926 6.92 9.33452 7.35829 8.55437 8.13844C7.77422 8.91859 7.33594 9.9767 7.33594 11.08C7.33594 12.1833 7.77422 13.2414 8.55437 14.0216C9.33452 14.8017 10.3926 15.24 11.4959 15.24Z" stroke="#ED1C24" stroke-width="2"/>
<path d="M11.501 1C16.0569 1.00308 20.5106 3.65322 21.6953 8.8877C23.1047 15.114 19.247 20.5011 15.6045 23.999L15.6025 24C14.4984 25.0649 13.0243 25.6602 11.4902 25.6602C10.052 25.6601 8.66626 25.1373 7.58887 24.1943L7.37793 24L7.03711 23.666C3.51241 20.1632 -0.0662968 14.9073 1.29883 8.875C2.48961 3.64072 6.94532 0.997059 11.501 1Z" stroke="#ED1C24" stroke-width="2"/>
</svg>
