<svg width="26" height="26" viewBox="0 0 26 26" fill="none" xmlns="http://www.w3.org/2000/svg">
<path d="M24.75 20.346C24.75 20.778 24.6539 21.222 24.4495 21.654C24.2452 22.086 23.9808 22.494 23.6323 22.878C23.0434 23.526 22.3945 23.994 21.6614 24.294C20.9403 24.594 20.1591 24.75 19.3179 24.75C18.092 24.75 16.782 24.462 15.4 23.874C14.0179 23.286 12.6358 22.494 11.2658 21.498C9.8837 20.49 8.57374 19.374 7.32386 18.138C6.086 16.89 4.96833 15.582 3.97083 14.214C2.98535 12.846 2.19216 11.478 1.6153 10.122C1.03843 8.754 0.75 7.446 0.75 6.198C0.75 5.382 0.894216 4.602 1.18265 3.882C1.47108 3.15 1.92777 2.478 2.56472 1.878C3.33388 1.122 4.17514 0.75 5.06447 0.75C5.40098 0.75 5.73748 0.822 6.03793 0.966C6.3504 1.11 6.62682 1.326 6.84314 1.638L9.63132 5.562C9.84765 5.862 10.0039 6.138 10.112 6.402C10.2202 6.654 10.2803 6.906 10.2803 7.134C10.2803 7.422 10.1962 7.71 10.0279 7.986C9.87168 8.262 9.64334 8.55 9.35491 8.838L8.44154 9.786C8.30934 9.918 8.24925 10.074 8.24925 10.266C8.24925 10.362 8.26127 10.446 8.2853 10.542C8.32136 10.638 8.35741 10.71 8.38145 10.782C8.59777 11.178 8.97033 11.694 9.49912 12.318C10.0399 12.942 10.6168 13.578 11.2417 14.214C11.8907 14.85 12.5156 15.438 13.1526 15.978C13.7775 16.506 14.2943 16.866 14.7029 17.082C14.763 17.106 14.8351 17.142 14.9193 17.178C15.0154 17.214 15.1115 17.226 15.2197 17.226C15.424 17.226 15.5802 17.154 15.7124 17.022L16.6258 16.122C16.9263 15.822 17.2147 15.594 17.4911 15.45C17.7675 15.282 18.0439 15.198 18.3444 15.198C18.5727 15.198 18.8131 15.246 19.0775 15.354C19.3419 15.462 19.6183 15.618 19.9188 15.822L23.8967 18.642C24.2092 18.858 24.4255 19.11 24.5577 19.41C24.6779 19.71 24.75 20.01 24.75 20.346Z" stroke="#EC1C24" stroke-width="1.5" stroke-miterlimit="10"/>
</svg>
