<svg width="61" height="38" viewBox="0 0 61 38" fill="none" xmlns="http://www.w3.org/2000/svg">
<path d="M30.1172 27.8364C27.6456 27.8364 25.5447 26.9772 23.8146 25.259C22.0845 23.5408 21.2195 21.4545 21.2195 19C21.2195 16.5455 22.0845 14.459 23.8146 12.7408C25.5447 11.0227 27.6456 10.1636 30.1172 10.1636C32.5888 10.1636 34.6896 11.0227 36.4197 12.7408C38.1498 14.459 39.0149 16.5455 39.0149 19C39.0149 21.4545 38.1498 23.5408 36.4197 25.259C34.6896 26.9772 32.5888 27.8364 30.1172 27.8364ZM30.1172 37C36.3236 37 42.022 35.3772 47.2123 32.1318C52.4026 28.8863 56.3709 24.509 59.1172 19C56.3709 13.4908 52.4026 9.11361 47.2123 5.86812C42.022 2.62262 36.3236 1 30.1172 1C23.9107 1 18.2123 2.62262 13.022 5.86812C7.83166 9.11361 3.86341 13.4908 1.11719 19C3.86341 24.509 7.83166 28.8863 13.022 32.1318C18.2123 35.3772 23.9107 37 30.1172 37Z" stroke="#ED1C24" stroke-width="2"/>
</svg>
