<svg width="46" height="28" viewBox="0 0 46 28" fill="none" xmlns="http://www.w3.org/2000/svg">
<path d="M4.85107 6.15916C4.85107 3.80531 6.96041 1.89038 9.5531 1.89038C12.1458 1.89038 14.2551 3.80531 14.2551 6.15916C14.2551 8.513 12.1458 10.4279 9.5531 10.4279C6.96041 10.4279 4.85107 8.513 4.85107 6.15916Z" stroke="#FDFDFD" stroke-width="2"/>
<path d="M10.4037 23.8938H4.05084C2.36815 23.8938 1 22.6508 1 21.1239V19.1256C1 15.3946 4.3433 12.3584 8.45374 12.3584H10.6548C11.9938 12.3584 13.2948 12.6815 14.4388 13.2945" stroke="#FDFDFD" stroke-width="2"/>
<path d="M31.2648 6.15916C31.2648 3.80531 33.3741 1.89038 35.9668 1.89038C38.5595 1.89038 40.6688 3.80531 40.6688 6.15916C40.6688 8.513 38.5595 10.4279 35.9668 10.4279C33.3741 10.4279 31.2648 8.513 31.2648 6.15916Z" stroke="#FDFDFD" stroke-width="2"/>
<path d="M35.117 23.8938H41.4698C43.1517 23.8938 44.5207 22.6516 44.5207 21.1239L44.5215 19.1256C44.5215 15.3938 41.1774 12.3584 37.0677 12.3584H34.8667C33.5277 12.3584 32.2259 12.6815 31.0819 13.2945" stroke="#FDFDFD" stroke-width="2"/>
<path d="M17.0393 6.26833C17.0393 3.36346 19.6426 1 22.8423 1" stroke="#FDFDFD" stroke-width="2"/>
<path d="M22.8423 1C26.0419 1 28.6448 3.36346 28.6448 6.26833" stroke="#FDFDFD" stroke-width="2"/>
<path d="M28.6448 6.26831C28.6448 9.17318 26.0419 11.5366 22.8423 11.5366" stroke="#FDFDFD" stroke-width="2"/>
<path d="M22.8423 11.5366C19.6426 11.5366 17.0393 9.17318 17.0393 6.26831" stroke="#FDFDFD" stroke-width="2"/>
<path d="M32.497 24.23C32.497 25.7577 31.128 26.9999 29.4462 26.9999" stroke="#FDFDFD" stroke-width="2"/>
<path d="M29.4463 26.9998H16.2388" stroke="#FDFDFD" stroke-width="2"/>
<path d="M16.2387 26.9999C14.556 26.9999 13.1879 25.7569 13.1879 24.23" stroke="#FDFDFD" stroke-width="2"/>
<path d="M13.1879 24.5178V20.4946" stroke="#FDFDFD" stroke-width="2"/>
<path d="M13.1879 21.2323C13.1879 16.9502 17.0256 13.4663 21.7421 13.4663" stroke="#FDFDFD" stroke-width="2"/>
<path d="M21.7422 13.4663H23.9432" stroke="#FDFDFD" stroke-width="2"/>
<path d="M23.9432 13.4663C28.6598 13.4663 32.4971 16.9502 32.4971 21.2323" stroke="#FDFDFD" stroke-width="2"/>
<path d="M32.4971 20.4946V24.5178" stroke="#FDFDFD" stroke-width="2"/>
</svg>
