<svg width="34" height="37" viewBox="0 0 34 37" fill="none" xmlns="http://www.w3.org/2000/svg">
<path d="M18.7955 1.41969L29.2844 6.30669C32.3066 7.70565 32.3066 10.0186 29.2844 11.4175L18.7955 16.3045C17.6044 16.8641 15.6489 16.8641 14.4578 16.3045L3.96886 11.4175C0.946639 10.0186 0.946639 7.70565 3.96886 6.30669L14.4578 1.41969C15.6489 0.860105 17.6044 0.860105 18.7955 1.41969Z" stroke="#FDFDFD" stroke-width="2" stroke-linecap="round" stroke-linejoin="round"/>
<path d="M1 16.4912C1 18.058 2.12 19.8673 3.48889 20.5015L15.56 26.1347C16.4844 26.5637 17.5333 26.5637 18.44 26.1347L30.5111 20.5015C31.88 19.8673 33 18.058 33 16.4912" stroke="#FDFDFD" stroke-width="2" stroke-linecap="round" stroke-linejoin="round"/>
<path d="M1 25.8171C1 27.5518 1.97778 29.1187 3.48889 29.8275L15.56 35.4606C16.4844 35.8896 17.5333 35.8896 18.44 35.4606L30.5111 29.8275C32.0222 29.1187 33 27.5518 33 25.8171" stroke="#FDFDFD" stroke-width="2" stroke-linecap="round" stroke-linejoin="round"/>
</svg>
