<svg width="46" height="29" viewBox="0 0 46 29" fill="none" xmlns="http://www.w3.org/2000/svg">
<path d="M7.81415 16.7077L7.50134 17.6924C7.37959 18.0753 7.3013 18.3158 7.2822 18.3738C7.23837 18.508 7.11554 18.5976 6.97543 18.5976H1.33378C1.15546 18.5976 1.01055 18.4525 1.01055 18.2741V1.34902C1.01055 1.25986 0.973755 1.08684 1.03782 1.02652C1.10076 0.966958 1.24769 1.02634 1.33836 1.02634V1.02488C1.34547 1.02488 1.35246 1.02524 1.35957 1.02524C5.05759 1.24403 9.79598 1.89099 10.9588 2.99317C11.0304 3.06023 11.0664 3.15769 11.0582 3.25622C11.0364 3.50572 11.005 3.7855 10.9649 4.0867L10.8716 4.78548H20.3702M7.81415 16.7077L8.53269 17.4501C8.68741 17.61 8.85387 17.7833 9.02695 17.9639L9.2461 18.1929C10.0673 19.0508 10.9162 19.938 11.4692 20.4018C14.9529 23.3187 19.1301 26.461 19.961 27.0069C20.5698 27.4074 21.9443 28 22.9599 28C23.7309 28 24.3156 27.8374 24.6974 27.5163L24.9773 27.2811L25.3182 27.4137C25.5726 27.5126 25.842 27.5628 26.1196 27.5628C26.4171 27.5628 26.7164 27.5051 27.0101 27.3905C27.7051 27.1215 28.298 26.573 28.6367 25.8859L28.8491 25.4551L29.319 25.5552C29.4929 25.5923 29.6755 25.611 29.8632 25.611C30.3375 25.611 30.8254 25.4919 31.2731 25.2671C31.8777 24.9625 32.3302 24.4945 32.5475 23.9498L32.7116 23.539L33.1534 23.5622C33.1912 23.5641 33.2289 23.5651 33.2668 23.5651C33.8328 23.5651 34.4043 23.3423 34.8771 22.9366C35.5597 22.3529 35.8563 21.5264 35.6918 20.6696L35.6146 20.2684L38.1304 18.5787L38.3757 19.3704C38.4848 19.7222 38.5717 20.0144 38.6335 20.2395C38.6721 20.3792 38.8002 20.4769 38.9452 20.4769H44.5868C44.7652 20.4769 44.9101 20.332 44.9101 20.1537V3.22841C44.9101 3.05009 44.7652 2.90518 44.5868 2.90518C37.4208 2.90518 33.3643 4.73943 33.1987 4.81585C33.1148 4.85519 33.0522 4.92778 33.0268 5.01469C33.0039 5.09299 33.0109 5.17705 33.0465 5.25085L34.0892 7.45439M7.81415 16.7077L8.12586 15.6735C8.94256 12.978 10.0447 9.09975 10.6565 5.93372L10.8716 4.96957M34.0892 7.45439L33.8307 7.36183C32.9282 7.03889 29.7386 5.87491 26.5879 4.46591C25.3831 3.92756 24.4029 3.67695 23.5031 3.67695C21.5576 3.67695 20.0468 4.82002 17.9392 6.92884C16.641 8.22695 15.4147 10.3592 15.6972 11.5404C15.7871 11.9237 16.0419 12.1819 16.4765 12.3265C16.9152 12.4733 17.318 12.5452 17.7057 12.5452H17.7068C18.8914 12.5452 19.8303 11.9483 20.7054 10.6401C20.7586 10.5603 20.9504 10.4429 21.0478 10.4332C21.7435 10.3627 21.963 10.2769 22.4953 10.0382L22.5407 10.0179C22.837 9.88568 23.2064 9.72124 23.7908 9.50957C23.8249 9.49721 23.8616 9.49091 23.8995 9.49091C23.9864 9.49091 24.0669 9.52426 24.1265 9.5842C25.1833 10.641 26.807 11.9536 28.5262 13.3432C31.0801 15.4093 33.7209 17.5455 34.9715 19.2164L35.6146 20.1537M34.0892 7.45439L34.1933 7.70792C35.3228 10.4532 36.8386 14.707 37.7688 17.4976L38.1259 18.5074M26.4882 17.5578C27.1435 18.2411 30.4803 21.7118 31.8196 22.9327L32.6295 23.7444M23.6549 20.3679L23.6777 20.3924C24.1483 20.8986 26.5677 23.4865 27.9699 24.7423L28.7601 25.5552M19.9025 22.2557C20.4596 22.8521 22.3896 24.9042 23.8305 26.2618L24.8264 27.2811" stroke="#FDFDFD" stroke-width="2"/>
</svg>
