<svg width="31" height="34" viewBox="0 0 31 34" fill="none" xmlns="http://www.w3.org/2000/svg">
<path d="M29.0398 7.71965C28.8714 6.83305 28.2612 6.09582 27.4071 5.74822L16.2524 1.2056C15.9174 1.06929 15.5631 1 15.1995 1C14.8359 1 14.4825 1.06929 14.1469 1.2056L2.99223 5.74822C2.13867 6.09582 1.5285 6.83305 1.35953 7.71965C1.32283 7.91276 0.471709 12.5145 1.52454 17.8363C2.1602 21.0505 3.35749 23.879 5.08268 26.2417C7.27516 29.2451 10.2902 31.4625 14.0442 32.8313C14.3512 32.9432 14.6735 33 15.0009 33H15.3978C15.7252 33 16.0472 32.9432 16.3543 32.8313C20.1082 31.4625 23.1236 29.2451 25.316 26.2417C27.0412 23.879 28.2379 21.0505 28.8742 17.8363C29.9264 12.5179 29.0756 7.91333 29.0389 7.71965H29.0398Z" stroke="#FDFDFD" stroke-width="2"/>
<path d="M10.3222 17.1615C11.1519 17.9714 11.998 18.7933 12.8161 19.5879L13.1509 19.9133C13.2663 20.0252 13.3723 20.09 13.4422 20.09C13.5104 20.09 13.6137 20.0275 13.7256 19.9184L17.2982 16.4453C17.5383 16.2119 17.7782 15.9784 18.0189 15.7456C18.5863 15.1946 19.1732 14.625 19.7477 14.0632" stroke="#FDFDFD" stroke-width="2"/>
</svg>
